<svg id="Guides" xmlns="http://www.w3.org/2000/svg" viewBox="0 0 64 64"><defs><style>.cls-1{fill:#065089;}.cls-2{fill:#fff;}</style></defs><title>app-logo</title><g id="Calendar"><path class="cls-1" d="M59,6H55.9V5a5,5,0,0,0-5-5h-.08a5,5,0,0,0-5,5V6H18.17V5a5,5,0,0,0-5-5H13.1a5,5,0,0,0-5,5V6H5a5,5,0,0,0-5,5V59a5,5,0,0,0,5,5H59a5,5,0,0,0,5-5V11A5,5,0,0,0,59,6ZM47.82,5a3,3,0,0,1,3-3h.08a3,3,0,0,1,3,3V14a3,3,0,0,1-3,3h-.08a3,3,0,0,1-3-3ZM10.1,5a3,3,0,0,1,3-3h.07a3,3,0,0,1,3,3V14a3,3,0,0,1-3,3H13.1a3,3,0,0,1-3-3ZM60,59a1,1,0,0,1-1,1H5a1,1,0,0,1-1-1V23.68H60Z"/><rect class="cls-2" x="47.82" y="2.01" width="6.08" height="14.96" rx="3"/><rect class="cls-2" x="10.1" y="2.01" width="6.07" height="14.96" rx="3"/><path class="cls-2" d="M60,23.68V59a1,1,0,0,1-1,1H5a1,1,0,0,1-1-1V23.68Z"/></g></svg>