<svg id="Guides" xmlns="http://www.w3.org/2000/svg" viewBox="0 0 25.1 40.85"><defs><style>.cls-1{fill:#edae09;}.cls-2{fill:#8c5c4a;}.cls-3{fill:#080808;}.cls-4{fill:#fefefe;}</style></defs><title>Reminder</title><g id="Calendar"><path class="cls-1" d="M12.56,29.57c-1.83,0-3.66,0-5.49,0-.33,0-.44-.06-.46-.42a12.13,12.13,0,0,0-2-5.57,60.47,60.47,0,0,1-3.37-6A12.66,12.66,0,0,1,1.08,7,11.41,11.41,0,0,1,9.58.35,12.92,12.92,0,0,1,21.34,3.28a11.16,11.16,0,0,1,3.75,8.21,15.09,15.09,0,0,1-2.35,8.34c-.82,1.41-1.68,2.79-2.49,4.2a11.22,11.22,0,0,0-1.74,5.29c0,.35-.23.25-.41.25Zm.33-24.09c-.12-.59-.26-1.2-.34-1.82,0-.33-.16-.36-.44-.3a10.72,10.72,0,0,0-8,8.57c-.06.3,0,.36.29.41.53.1,1.07.19,1.59.33.34.1.46.06.55-.33a8.46,8.46,0,0,1,3.64-5.43A10.26,10.26,0,0,1,12.6,5.79C12.73,5.75,13,5.76,12.89,5.48Z"/><path class="cls-2" d="M12.52,33.35H8.36a1.09,1.09,0,0,1-1.24-1.1,1.1,1.1,0,0,1,1.24-1.11q4.22,0,8.41,0A1.1,1.1,0,0,1,18,32.25a1.09,1.09,0,0,1-1.24,1.1Z"/><path class="cls-2" d="M12.52,37h-4a1.1,1.1,0,1,1,0-2.2q4.11,0,8.21,0A1.08,1.08,0,0,1,17.81,36a1.06,1.06,0,0,1-1.19,1Z"/><path class="cls-3" d="M8.47,38.43h8.22c-.9.75-1.62,1.54-2.5,2.15a1.23,1.23,0,0,1-.74.23,6.53,6.53,0,0,0-1,0,2.77,2.77,0,0,1-2.54-1C9.48,39.35,9,38.93,8.47,38.43Z"/><path class="cls-4" d="M12.89,5.48c.08.28-.16.27-.29.31a10.26,10.26,0,0,0-2.45,1.12,8.46,8.46,0,0,0-3.64,5.43c-.09.39-.21.43-.55.33-.52-.14-1.06-.23-1.59-.33-.25-.05-.35-.11-.29-.41a10.72,10.72,0,0,1,8-8.57c.28-.06.4,0,.44.3C12.63,4.28,12.77,4.89,12.89,5.48Z"/></g></svg>