<svg id="Guides" xmlns="http://www.w3.org/2000/svg" viewBox="0 0 30 30"><defs><style>.cls-1{fill:#446eb6;}</style></defs><title>search</title><g id="Calendar"><polygon class="cls-1" points="1 24.66 9.69 16.52 13.51 20.87 4.82 29 1 24.66 1 24.66"/><path class="cls-1" d="M19.32,1a9.47,9.47,0,0,1,3.16.55,10.06,10.06,0,0,1,6,12.69A9.72,9.72,0,0,1,19.32,21a9.53,9.53,0,0,1-3.17-.55,10.06,10.06,0,0,1-6-12.69A9.7,9.7,0,0,1,19.32,1m0,2.7a7.08,7.08,0,0,0-6.67,4.9A7.39,7.39,0,0,0,13,14.16a7.08,7.08,0,0,0,4,3.69,6.77,6.77,0,0,0,2.31.4A7.09,7.09,0,0,0,26,13.36a7.44,7.44,0,0,0-.33-5.56,7,7,0,0,0-4-3.69h0a6.76,6.76,0,0,0-2.3-.41Z"/></g></svg>