<svg id="Guides" xmlns="http://www.w3.org/2000/svg" viewBox="0 0 33.14 34.93"><defs><style>.cls-1{fill:#688491;}.cls-2{fill:#546a74;}.cls-3{fill:#d0d9dd;}.cls-4{fill:#a9fdea;}.cls-5{fill:#91a5af;}</style></defs><title>Settings</title><g id="To_Do" data-name="To Do"><path class="cls-1" d="M.17,23.12a1.13,1.13,0,0,1,.41-1.2c.86-.75,1.75-1.47,2.54-2.3A1.44,1.44,0,0,0,3.5,19a.94.94,0,0,0,.13-.59V15.79a1.77,1.77,0,0,0-.51-1.29c-.64-.67-1.37-1.24-2-1.87a2.75,2.75,0,0,1-.93-1,1.22,1.22,0,0,1,.18-.87L3.08,6.09a.85.85,0,0,1,1.17-.43l3,1a2.14,2.14,0,0,0,1.86-.19c.64-.39,1.29-.75,1.95-1.1A2.06,2.06,0,0,0,12.18,3.9c.19-1,.42-2.08.63-3.12.12-.59.34-.78.92-.78h5.58a.78.78,0,0,1,.91.74c.22,1.11.45,2.23.68,3.34a1.76,1.76,0,0,0,.94,1.2c.74.41,1.48.81,2.2,1.25a2,2,0,0,0,1.76.13c1-.32,2-.67,3-1a.82.82,0,0,1,1.11.41l2.79,4.66a1.43,1.43,0,0,1,.2.73,1.67,1.67,0,0,1-.43.73c-.66.53-1.28,1.09-1.9,1.66a3.67,3.67,0,0,0-1.17,1.5c-.17,0-.26-.13-.36-.23q-2-2-4-3.92c-.18-.17-.35-.38-.63-.39l-.33-.39a9.88,9.88,0,0,0-4.77-3A10.16,10.16,0,0,0,15.53,7a9.28,9.28,0,0,0-4,1.27A7,7,0,0,0,9.75,9.57a9.87,9.87,0,0,0-3.25,7A10,10,0,0,0,8,22.49,10.84,10.84,0,0,0,10.25,25l.07.11v0c0,.15.09.22.18.31,1,1,2,2.09,3,3.12s2.11,2.17,3.17,3.25l2,2.11a.37.37,0,0,1,.15.25H13.77c-.62,0-.84-.18-1-.81a4.48,4.48,0,0,0-.11-.5c-.2-.8-.38-1.61-.51-2.42a2.13,2.13,0,0,0-1.13-1.63c-.61-.33-1.24-.64-1.82-1a2.24,2.24,0,0,0-2.15-.23c-1,.34-1.92.65-2.88,1a.85.85,0,0,1-1.12-.42c-.59-1-1.18-2-1.76-3C.94,24.44.55,23.78.17,23.12Z"/><path class="cls-2" d="M24.43,10.8c.28,0,.45.22.63.39q2,2,4,3.92c.1.1.19.24.36.23,0,1,0,2.07,0,3.1a1.05,1.05,0,0,0,.21.72,3,3,0,0,0,.95,1.09c.57.53,1.14,1.07,1.76,1.55a1.24,1.24,0,0,1,.52,1.46,1.49,1.49,0,0,0-.12.14L30,28.05a.86.86,0,0,1-1.15.43l-3-1a2,2,0,0,0-1.66.09c-.77.44-1.56.87-2.33,1.32a1.8,1.8,0,0,0-.9,1.15c-.21,1-.4,2-.6,3s-.35,1.21-1.46,1.13a.37.37,0,0,0-.15-.25l-2-2.11q-1.59-1.62-3.17-3.25c-1-1-2-2.08-3-3.12-.09-.09-.2-.16-.18-.31l.19.11a9.47,9.47,0,0,0,1.85,1.07,7,7,0,0,0,1,.43,11,11,0,0,0,4.55.38,9.73,9.73,0,0,0,6.34-3.51,9.77,9.77,0,0,0,2.31-6.91c0-.26,0-.53,0-.8A9.93,9.93,0,0,0,24.43,10.8Z"/><path class="cls-3" d="M18.83,34.12c1.11.08,1.25,0,1.46-1.13s.39-2,.6-3a1.8,1.8,0,0,1,.9-1.15c.77-.45,1.56-.88,2.33-1.32a2,2,0,0,1,1.66-.09l3,1A.86.86,0,0,0,30,28.05l2.77-4.65a1.49,1.49,0,0,1,.12-.14,1.11,1.11,0,0,1-.2,1.12c-.51.86-1.07,1.69-1.54,2.57-.27.51-.51,1-.83,1.53a3.12,3.12,0,0,1-.39.56,1.07,1.07,0,0,1-1,.29c-.6-.11-1.09-.48-1.66-.63s-1.2-.36-1.82-.5a2.27,2.27,0,0,0-1.4.25,18.63,18.63,0,0,0-2,1.16,2.67,2.67,0,0,0-1.1,2c-.14.72-.3,1.45-.44,2.18a3,3,0,0,1-.36.82.74.74,0,0,1-.7.31H13.66a.81.81,0,0,1-.84-.64A21.53,21.53,0,0,1,12,30.66a1.19,1.19,0,0,0-.31-.51,3.17,3.17,0,0,0-1-.84c-.42-.21-.8-.47-1.22-.67a2.78,2.78,0,0,0-2.37-.29c-.88.36-1.83.51-2.71.91A1,1,0,0,1,3,28.89,13.1,13.1,0,0,1,1.9,27c-.6-1-1.22-2-1.75-3a.74.74,0,0,1,0-.87c.38.66.77,1.32,1.16,2,.58,1,1.17,2,1.76,3a.85.85,0,0,0,1.12.42c1-.31,1.92-.62,2.88-1a2.24,2.24,0,0,1,2.15.23c.58.38,1.21.69,1.82,1a2.13,2.13,0,0,1,1.13,1.63c.13.81.31,1.62.51,2.42a4.48,4.48,0,0,1,.11.5c.12.63.34.81,1,.81Z"/><path class="cls-3" d="M29.61,19.16a1.05,1.05,0,0,1-.21-.72c0-1,0-2.07,0-3.1a3.67,3.67,0,0,1,1.17-1.5c.62-.57,1.24-1.13,1.9-1.66a1.67,1.67,0,0,0,.43-.73,1,1,0,0,1,0,1.25,9.36,9.36,0,0,1-.95.94,24.55,24.55,0,0,0-1.9,1.77,1.54,1.54,0,0,0-.4,1.14c0,.74,0,1.49,0,2.23C29.68,18.91,29.73,19.05,29.61,19.16Z"/><path class="cls-3" d="M.14,11.59a2.75,2.75,0,0,0,.93,1c.68.63,1.41,1.2,2.05,1.87a1.77,1.77,0,0,1,.51,1.29v2.63A.94.94,0,0,1,3.5,19c-.13-.11-.08-.25-.08-.38,0-.71,0-1.42,0-2.12a2.08,2.08,0,0,0-.83-1.62C1.83,14.14,1,13.52.25,12.71A.93.93,0,0,1,.14,11.59Z"/><path class="cls-3" d="M12.36,26.26a9.47,9.47,0,0,1-1.85-1.07l-.19-.11v0L10.25,25A10.84,10.84,0,0,1,8,22.49,10,10,0,0,1,6.5,16.55a9.87,9.87,0,0,1,3.25-7,7,7,0,0,1,1.81-1.28c.29.36.56.75.84,1.12a8.1,8.1,0,0,0,1,1.32,1.19,1.19,0,0,1-.15.09A6.52,6.52,0,0,0,10,14.63a8.3,8.3,0,0,0-.32,3A6.46,6.46,0,0,0,11.47,22a7.68,7.68,0,0,0,2.24,1.55c-.05.12-.1.25-.16.37C13.16,24.69,12.71,25.45,12.36,26.26Z"/><path class="cls-4" d="M13.41,10.73a8.1,8.1,0,0,1-1-1.32c-.28-.37-.55-.76-.84-1.12a9.28,9.28,0,0,1,4-1.27,10.16,10.16,0,0,1,3.8.34,9.88,9.88,0,0,1,4.77,3.05l.33.39a9.93,9.93,0,0,1,2.06,5c0,.27,0,.54,0,.8l-3.09,0c-.1-.09-.05-.2-.06-.31a6.49,6.49,0,0,0-5.13-6.07A8,8,0,0,0,13.41,10.73Z"/><path class="cls-2" d="M10.25,25l.07.11Z"/><path class="cls-5" d="M23.44,16.67l3.09,0a9.77,9.77,0,0,1-2.31,6.91,9.73,9.73,0,0,1-6.34,3.51,11,11,0,0,1-4.55-.38,7,7,0,0,1-1-.43c.35-.81.8-1.57,1.19-2.35.06-.12.11-.25.16-.37l.35.1a7.82,7.82,0,0,0,4.26.18,6.26,6.26,0,0,0,4.09-2.91A7.49,7.49,0,0,0,23.44,16.67Z"/><path class="cls-2" d="M23.44,16.67a7.49,7.49,0,0,1-1,4.24,6.26,6.26,0,0,1-4.09,2.91,7.82,7.82,0,0,1-4.26-.18l-.35-.1A7.68,7.68,0,0,1,11.47,22,6.46,6.46,0,0,1,9.65,17.6a8.3,8.3,0,0,1,.32-3,6.52,6.52,0,0,1,3.29-3.81,1.19,1.19,0,0,0,.15-.09,8,8,0,0,1,4.84-.44,6.49,6.49,0,0,1,5.13,6.07C23.39,16.47,23.34,16.58,23.44,16.67Zm-7,4.81a4.35,4.35,0,0,0,4.41-4.39A4.38,4.38,0,1,0,12.14,17,4.36,4.36,0,0,0,16.48,21.48Z"/><path class="cls-4" d="M16.48,21.48A4.36,4.36,0,0,1,12.14,17a4.38,4.38,0,1,1,8.75.08A4.35,4.35,0,0,1,16.48,21.48Z"/></g></svg>