<svg id="Guides" xmlns="http://www.w3.org/2000/svg" viewBox="0 0 40.15 40.21"><defs><style>.cls-1{fill:#01a417;}.cls-2{fill:#db9f09;}</style></defs><title>To-Do</title><g id="To_Do" data-name="To Do"><polygon points="15.07 24.34 15.07 24.34 15.07 24.34 15.07 24.34"/><polygon class="cls-1" points="20.01 19.39 15.07 24.34 24.39 33.67 40.15 17.91 36.55 14.25 24.49 24.26 20.01 19.39"/><path class="cls-2" d="M31.41,37.7H2.51V5H6V6.35A1.25,1.25,0,0,0,7.2,7.6h.32A1.25,1.25,0,0,0,8.77,6.35V5h3.68V6.35A1.25,1.25,0,0,0,13.7,7.6H14a1.25,1.25,0,0,0,1.25-1.25V5H19V6.35A1.25,1.25,0,0,0,20.2,7.6h.32a1.25,1.25,0,0,0,1.25-1.25V5h3.67V6.35A1.26,1.26,0,0,0,26.7,7.6H27a1.25,1.25,0,0,0,1.25-1.25V5H29l2.39,2.35v7l2.52-2.09v-6L30.05,2.53H28.27V1.26A1.26,1.26,0,0,0,27,0H26.7a1.27,1.27,0,0,0-1.26,1.26V2.53H21.77V1.26A1.26,1.26,0,0,0,20.52,0H20.2A1.26,1.26,0,0,0,19,1.26V2.53H15.27V1.26A1.26,1.26,0,0,0,14,0H13.7a1.26,1.26,0,0,0-1.25,1.26V2.53H8.77V1.26A1.26,1.26,0,0,0,7.52,0H7.2A1.26,1.26,0,0,0,6,1.26V2.53H0V40.21H33.93V28.58l-2.52,2.51Z"/></g></svg>