<?xml version="1.0" standalone="no"?>
<!DOCTYPE svg PUBLIC "-//W3C//DTD SVG 1.1//EN" "http://www.w3.org/Graphics/SVG/1.1/DTD/svg11.dtd" >
<svg xmlns="http://www.w3.org/2000/svg" xmlns:xlink="http://www.w3.org/1999/xlink" version="1.1">
<metadata></metadata>
<defs>
<font id="geometr231_btbold" horiz-adv-x="1147" >
<font-face units-per-em="2048" ascent="1638" descent="-410" />
<missing-glyph horiz-adv-x="573" />
<glyph horiz-adv-x="0" />
<glyph unicode="&#xd;" horiz-adv-x="573" />
<glyph unicode=" "  horiz-adv-x="573" />
<glyph unicode="&#x09;" horiz-adv-x="573" />
<glyph unicode="&#xa0;" horiz-adv-x="573" />
<glyph unicode="!" horiz-adv-x="606" d="M199 0v215h209v-215h-209zM199 311v1153l209 21v-1174h-209z" />
<glyph unicode="&#x22;" horiz-adv-x="614" d="M90 881v555h139v-555h-139zM385 881v555h139v-555h-139z" />
<glyph unicode="#" horiz-adv-x="1575" d="M88 449l53 147h310l92 262h-330l51 146h332l162 454h166l-162 -454h256l164 454h164l-160 -454h301l-51 -146h-303l-93 -262h322l-51 -147h-322l-162 -453h-165l161 453h-258l-162 -453h-165l159 453h-309zM616 594h261l92 264h-260z" />
<glyph unicode="$" d="M137 207l146 139q54 -87 112 -133t123 -53v465q-176 58 -261 154.5t-85 238.5q0 155 92.5 257.5t253.5 125.5v131h113v-127q111 -18 197.5 -74t142.5 -145l-127 -127q-47 71 -98 111.5t-115 60.5v-440q182 -73 265 -170t83 -236q0 -153 -95.5 -262.5t-252.5 -136.5v-152 h-113v145q-116 10 -209 65.5t-172 162.5zM362 1036q0 -67 39 -117t117 -83v393q-73 -18 -114.5 -69.5t-41.5 -123.5zM631 166q68 26 106.5 80.5t38.5 124.5q0 68 -37 120.5t-108 83.5v-409z" />
<glyph unicode="%" horiz-adv-x="1702" d="M47 961q0 151 108 258.5t263 107.5q156 0 262 -106t106 -260t-108 -261.5t-260 -107.5q-151 0 -261 109t-110 260zM205 961q0 -88 63.5 -154t149.5 -66q87 0 150 64.5t63 155.5t-62 154t-151 63t-151 -64t-62 -153zM340 -25l868 1352h156l-879 -1352h-145zM915 344 q0 152 107.5 259.5t261.5 107.5q156 0 263.5 -106.5t107.5 -260.5q0 -153 -109 -261t-262 -108q-150 0 -259.5 109.5t-109.5 259.5zM1071 344q0 -88 63.5 -153.5t149.5 -65.5q87 0 150 64t63 155q0 92 -61.5 154.5t-151.5 62.5q-89 0 -151 -64t-62 -153z" />
<glyph unicode="&#x26;" horiz-adv-x="1114" d="M70 274q0 106 68.5 198.5t213.5 180.5q-61 66 -94 140t-33 145q0 125 90 213t220 88q129 0 216 -84t87 -211q0 -89 -52 -163t-170 -150l148 -158l176 207l111 -148l-164 -188l229 -248l-129 -129l-219 236q-87 -120 -185 -183t-198 -63q-135 0 -225 91t-90 226zM274 285 q0 -56 35.5 -93.5t87.5 -37.5q51 0 110.5 42.5t137.5 135.5l-176 190q-110 -76 -152.5 -129t-42.5 -108zM410 948q0 -41 22 -85.5t72 -100.5q82 63 114.5 106.5t32.5 87.5q0 50 -34 83.5t-82 33.5q-57 0 -91 -34.5t-34 -90.5z" />
<glyph unicode="'" horiz-adv-x="317" d="M90 881v555h139v-555h-139z" />
<glyph unicode="(" horiz-adv-x="793" d="M158 559q0 251 110.5 487.5t329.5 452.5l141 -127q-189 -200 -281.5 -401.5t-92.5 -411.5t93 -412.5t281 -402.5l-141 -125q-219 216 -329.5 452.5t-110.5 487.5z" />
<glyph unicode=")" horiz-adv-x="793" d="M51 -256q190 200 283.5 403t93.5 412t-93.5 410.5t-283.5 402.5l142 127q218 -216 330 -453t112 -487t-112 -487t-330 -453z" />
<glyph unicode="*" horiz-adv-x="1024" d="M199 1049l207 118l-193 117l31 100l217 -124v225l102 18v-243l195 112l67 -80l-211 -125l193 -112l-27 -103l-217 125v-229l-102 -12v241l-201 -112z" />
<glyph unicode="+" horiz-adv-x="1706" d="M254 541v139h528v541h142v-541h528v-139h-528v-541h-142v541h-528z" />
<glyph unicode="," horiz-adv-x="573" d="M25 -266l219 542h217l-258 -542h-178z" />
<glyph unicode="-" horiz-adv-x="647" d="M109 328v188h428v-188h-428z" />
<glyph unicode="." horiz-adv-x="573" d="M186 0v215h201v-215h-201z" />
<glyph unicode="/" horiz-adv-x="569" d="M-102 -190l553 1693h167l-555 -1693h-165z" />
<glyph unicode="0" d="M72 653q0 300 141 487t360 187q220 0 361 -187t141 -487q0 -303 -139.5 -489.5t-362.5 -186.5q-222 0 -361.5 186.5t-139.5 489.5zM289 653q0 -213 78.5 -343t205.5 -130q128 0 207.5 130.5t79.5 342.5t-80.5 344.5t-206.5 132.5t-205 -131.5t-79 -345.5z" />
<glyph unicode="1" d="M240 987q147 88 270 175t229 177v-1339l-209 -18v979q-49 -39 -97.5 -71.5t-98.5 -62.5z" />
<glyph unicode="2" d="M131 0q86 113 236 303q374 472 374 623q0 92 -52.5 148t-137.5 56q-82 0 -138.5 -56.5t-56.5 -139.5q0 -75 51.5 -125t143.5 -64l-117 -151q-134 39 -209 130t-75 214q0 160 125 274.5t300 114.5q170 0 280 -109t110 -276q0 -219 -430 -733h446l-59 -209h-791z" />
<glyph unicode="3" d="M147 180l148 160q36 -74 97.5 -115t135.5 -41q87 0 140 52.5t53 138.5q0 93 -55.5 143.5t-157.5 50.5h-105v207h103q100 0 157.5 43t57.5 117q0 81 -50.5 129.5t-133.5 48.5q-71 0 -125.5 -35.5t-87.5 -103.5l-160 129q68 106 169 163.5t218 57.5q165 0 276 -105 t111 -259q0 -100 -53 -176t-148 -113q102 -39 155.5 -116.5t53.5 -186.5q0 -168 -119.5 -280t-298.5 -112q-112 0 -210 52.5t-171 150.5z" />
<glyph unicode="4" d="M90 311l639 994h154v-809h143v-185h-143v-311h-201v311h-592zM367 496h315l12 512z" />
<glyph unicode="5" d="M160 104l86 172q62 -46 124.5 -70t125.5 -24q116 0 188 74.5t72 196.5q0 110 -78.5 184t-196.5 74q-71 0 -128 -17.5t-107 -54.5v666h712l-100 -205h-424v-207q28 5 51.5 7.5t44.5 2.5q193 0 321 -125t128 -317q0 -204 -141.5 -344t-348.5 -140q-93 0 -182 34.5 t-147 92.5z" />
<glyph unicode="6" d="M141 459q0 192 127.5 404t403.5 476l186 -100q-88 -81 -175 -173.5t-187 -209.5q42 18 75.5 25.5t67.5 7.5q175 0 289 -117t114 -297q0 -217 -128.5 -358.5t-319.5 -141.5q-199 0 -326 136t-127 348zM356 436q0 -108 67.5 -182t168.5 -74q100 0 169.5 75.5t69.5 180.5 q0 106 -70 181t-169 75t-167.5 -73.5t-68.5 -182.5z" />
<glyph unicode="7" d="M100 1096l15 209h843l-378 -1305l-236 -18l342 1114h-586z" />
<glyph unicode="8" d="M160 340q0 101 48.5 185.5t137.5 138.5q-87 47 -130.5 119.5t-43.5 170.5q0 159 115 266t286 107q172 0 288 -107t116 -266q0 -97 -43 -169t-131 -121q88 -55 136 -139t48 -185q0 -160 -115 -261.5t-299 -101.5q-183 0 -298 102t-115 261zM365 358q0 -76 62 -132t146 -56 q80 0 136.5 55t56.5 131q0 75 -57 133.5t-162 92.5q-91 -46 -136.5 -102t-45.5 -122zM381 954q0 -70 57 -124.5t158 -77.5q91 43 131.5 92.5t40.5 116.5q0 74 -54 123t-139 49t-139.5 -50t-54.5 -129z" />
<glyph unicode="9" d="M125 846q0 203 130 342t318 139q202 0 327.5 -136t125.5 -355q0 -184 -130 -398t-400 -473l-187 101q88 81 175.5 173t187.5 210q-38 -18 -72 -25.5t-72 -7.5q-178 0 -290.5 119.5t-112.5 310.5zM336 868q0 -106 70 -181t169 -75q100 0 168 74t68 182q0 107 -68.5 181.5 t-167.5 74.5q-100 0 -169.5 -75t-69.5 -181z" />
<glyph unicode=":" horiz-adv-x="573" d="M186 0v215h201v-215h-201zM186 575v218h201v-218h-201z" />
<glyph unicode=";" horiz-adv-x="573" d="M25 -260l219 541h217l-258 -541h-178zM254 424v215h199v-215h-199z" />
<glyph unicode="&#x3c;" horiz-adv-x="1706" d="M264 547v129l1178 483v-153l-969 -396l969 -393v-154z" />
<glyph unicode="=" horiz-adv-x="1706" d="M254 342v139h1198v-139h-1198zM254 739v140h1198v-140h-1198z" />
<glyph unicode="&#x3e;" horiz-adv-x="1706" d="M264 63v154l971 393l-971 396v153l1178 -483v-129z" />
<glyph unicode="?" horiz-adv-x="1053" d="M94 1102q15 178 126 289.5t269 111.5q169 0 277 -112.5t108 -288.5q0 -106 -37 -200t-116 -189q-11 -14 -31 -37q-96 -111 -96 -240v-125h-209v176q0 85 25.5 151t85.5 136q11 14 35 40q133 149 133 284q0 87 -53.5 147t-131.5 60q-89 0 -144.5 -71.5t-55.5 -186.5v-13z M385 0v215h209v-215h-209z" />
<glyph unicode="@" horiz-adv-x="2048" d="M106 522q0 165 52 313t151 269q146 178 351.5 270t455.5 92q163 0 310 -45t253 -127q130 -100 197.5 -231t67.5 -283q0 -175 -63.5 -315t-184.5 -236q-68 -54 -149.5 -83t-166.5 -29q-99 0 -149.5 39.5t-50.5 117.5v19q-55 -89 -129 -131.5t-172 -42.5q-153 0 -233.5 85 t-80.5 247q0 235 138 394t339 159q85 0 145.5 -37.5t96.5 -112.5l57 115h132l-146 -576q-4 -16 -6 -31t-2 -28q0 -46 25.5 -70t74.5 -24q48 0 102.5 26.5t106.5 75.5q80 76 125 186.5t45 233.5q0 259 -190.5 420t-499.5 161q-133 0 -246 -28t-211 -86q-191 -114 -296 -299.5 t-105 -409.5q0 -177 61.5 -308t192.5 -230q100 -77 236.5 -118.5t287.5 -41.5q169 0 328.5 49t292.5 141l55 -82q-148 -111 -314.5 -167t-349.5 -56q-190 0 -348 47t-280 140q-154 118 -230 274t-76 354zM725 446q0 -105 48.5 -162t137.5 -57q97 0 174.5 69t104.5 179 l59 236q-17 88 -68.5 136t-129.5 48q-138 0 -232 -130t-94 -319z" />
<glyph unicode="A" horiz-adv-x="1489" d="M-8 10l788 1508l760 -1508l-209 -53l-297 602h-551l-305 -602zM578 743h378l-186 375z" />
<glyph unicode="B" horiz-adv-x="1124" d="M147 0v1464h367q242 0 373 -98.5t131 -280.5q0 -120 -61 -206t-179 -131q116 -36 181 -125t65 -215q0 -192 -130.5 -300t-363.5 -108h-383zM367 184h145q139 0 211 58t72 170q0 117 -79.5 181t-226.5 64h-122v-473zM367 827h108q164 0 241 57.5t77 178.5q0 109 -71 163 t-212 54h-143v-453z" />
<glyph unicode="C" d="M86 741q0 321 211 531.5t539 210.5q31 0 60.5 -1.5t55.5 -4.5q18 -3 57 -11q21 -4 31 -6l35 -223q-54 20 -110.5 30.5t-112.5 10.5q-234 0 -388.5 -152.5t-154.5 -382.5q0 -243 164.5 -400t423.5 -157q41 0 85 6.5t95 20.5l-45 -221q-4 -1 -12 -2q-77 -10 -115 -10 q-372 0 -595.5 208t-223.5 553z" />
<glyph unicode="D" horiz-adv-x="1356" d="M147 0v1464h338q369 0 580 -197t211 -536q0 -184 -76 -343.5t-209 -254.5q-97 -70 -224.5 -101.5t-315.5 -31.5h-304zM367 197h120q274 0 420 137.5t146 396.5q0 248 -144.5 393.5t-394.5 145.5h-147v-1073z" />
<glyph unicode="E" horiz-adv-x="977" d="M147 0v1464h717l54 -198h-551v-406h440v-205h-440v-446h614l-78 -209h-756z" />
<glyph unicode="F" horiz-adv-x="901" d="M147 -18v1482h701l49 -198h-530v-408h376v-205h-376v-653z" />
<glyph unicode="G" horiz-adv-x="1540" d="M74 733q0 146 52.5 282t149.5 242q110 120 255.5 183t314.5 63q162 0 309.5 -59.5t243.5 -163.5l-137 -150q-100 86 -200.5 126t-215.5 40q-234 0 -391.5 -162.5t-157.5 -400.5t157.5 -400.5t391.5 -162.5q104 0 195.5 32.5t170.5 98.5v336h-303v199h521v-654 q-143 -112 -287.5 -166.5t-296.5 -54.5q-332 0 -552 220t-220 552z" />
<glyph unicode="H" horiz-adv-x="1507" d="M147 -18v1482l220 21v-625h774v604l217 21v-1485l-217 -18v665h-774v-647z" />
<glyph unicode="I" horiz-adv-x="545" d="M164 -18v1482l217 21v-1485z" />
<glyph unicode="J" horiz-adv-x="807" d="M55 -14v206q26 -3 47.5 -4.5t40.5 -1.5q159 0 228 93.5t69 314.5v870l217 21v-940q0 -190 -36.5 -291.5t-122.5 -169.5q-65 -51 -153.5 -79t-184.5 -28q-18 0 -40 2t-65 7z" />
<glyph unicode="K" horiz-adv-x="1139" d="M147 -18v1482l220 21v-723l600 741l184 -108l-541 -658l545 -694l-213 -86l-575 756v-713z" />
<glyph unicode="L" horiz-adv-x="1008" d="M147 0v1464l220 21v-1276h647l-82 -209h-785z" />
<glyph unicode="M" horiz-adv-x="1782" d="M76 0l164 1507l663 -1159l653 1159l173 -1507l-230 -18l-82 915l-524 -915l-526 913l-91 -913z" />
<glyph unicode="N" horiz-adv-x="1475" d="M147 -18v1538l961 -1037v981l217 21v-1544l-958 1038v-979z" />
<glyph unicode="O" horiz-adv-x="1692" d="M74 733q0 168 70 320.5t200 267.5q99 88 228 135t274 47q144 0 273.5 -47t230.5 -135q130 -116 199 -268t69 -320q0 -145 -52.5 -281.5t-150.5 -244.5q-109 -120 -254.5 -183t-314.5 -63q-145 0 -274 47t-228 135q-131 117 -200.5 269t-69.5 321zM297 733 q0 -239 157 -401t392 -162q233 0 391 163t158 400q0 238 -157.5 400.5t-391.5 162.5t-391.5 -162.5t-157.5 -400.5z" />
<glyph unicode="P" horiz-adv-x="1124" d="M147 -18v1482h388q251 0 382.5 -113t131.5 -331q0 -206 -151 -325.5t-415 -119.5q-35 0 -110 4q-4 0 -6 1v-580zM367 780q29 -5 61.5 -7.5t73.5 -2.5q160 0 242.5 63.5t82.5 186.5q0 129 -76.5 189.5t-240.5 60.5h-143v-490z" />
<glyph unicode="Q" horiz-adv-x="1692" d="M74 733q0 168 70 320.5t200 267.5q99 88 228 135t274 47q143 0 273 -47t231 -135q130 -116 199 -268t69 -320q0 -131 -40.5 -248t-121.5 -219l146 -155l-150 -146l-137 154q-92 -76 -213.5 -117t-255.5 -41q-145 0 -274 47t-228 135q-130 116 -200 268.5t-70 321.5z M297 733q0 -238 157.5 -400.5t391.5 -162.5q97 0 174 25t149 79l-120 134l147 143l113 -123q43 68 64.5 143.5t21.5 161.5q0 238 -157.5 400.5t-391.5 162.5t-391.5 -162.5t-157.5 -400.5z" />
<glyph unicode="R" horiz-adv-x="1075" d="M147 -18v1482h281q119 0 194.5 -13.5t133.5 -43.5q94 -50 149.5 -149.5t55.5 -221.5q0 -145 -94 -250t-249 -131l447 -606l-207 -88l-491 713v-674zM367 805h79q141 0 218 63t77 176q0 112 -73.5 169t-216.5 57h-84v-465z" />
<glyph unicode="S" horiz-adv-x="1020" d="M51 215l166 156q55 -96 127 -145.5t156 -49.5q101 0 165 63t64 160q0 152 -281 262q-7 3 -11 4q-189 74 -268 170.5t-79 247.5q0 191 122 305.5t325 114.5q124 0 232 -61.5t179 -173.5l-143 -144q-56 88 -129 134.5t-156 46.5q-92 0 -152.5 -58t-60.5 -147 q0 -146 297 -267q57 -23 88 -36q125 -54 193.5 -154.5t68.5 -230.5q0 -191 -129.5 -318t-324.5 -127q-134 0 -244.5 61t-204.5 187z" />
<glyph unicode="T" horiz-adv-x="977" d="M-18 1255l57 209h934v-209h-371v-1255l-219 -18v1273h-401z" />
<glyph unicode="U" horiz-adv-x="1335" d="M147 563v901l220 21v-832q0 -265 68 -372t229 -107q162 0 234.5 101.5t72.5 336.5v852l213 21v-922q0 -179 -26.5 -274.5t-88.5 -167.5t-169 -115t-224 -43q-266 0 -397.5 149t-131.5 451z" />
<glyph unicode="V" horiz-adv-x="1208" d="M-33 1464h240l407 -1015l410 1015h227l-649 -1519z" />
<glyph unicode="W" horiz-adv-x="1794" d="M-43 1464h227l414 -1036l209 481l-250 555h225l133 -323l134 323h202l-239 -538l213 -506l409 1044h221l-626 -1519l-328 766l-321 -768z" />
<glyph unicode="X" horiz-adv-x="1161" d="M-18 84l483 672l-467 618l168 125l418 -586l409 586l168 -115l-461 -628l486 -674l-172 -121l-434 631l-426 -631z" />
<glyph unicode="Y" horiz-adv-x="1157" d="M-8 1413l196 90l424 -710l303 710l197 -88l-637 -1460l-213 57l248 551z" />
<glyph unicode="Z" horiz-adv-x="1241" d="M31 0l807 1266h-783l41 198h1116l-792 -1255h794l-34 -209h-1149z" />
<glyph unicode="[" horiz-adv-x="793" d="M203 -350v1814h411v-190h-221v-1436h221v-188h-411z" />
<glyph unicode="\" horiz-adv-x="569" d="M-49 1503h168l551 -1693h-164z" />
<glyph unicode="]" horiz-adv-x="793" d="M178 -162h221v1436h-221v190h410v-1814h-410v188z" />
<glyph unicode="^" horiz-adv-x="2048" d="M420 901l510 557h186l510 -557h-180l-422 420l-424 -420h-180z" />
<glyph unicode="_" horiz-adv-x="1024" d="M0 -340h1024v-143h-1024v143z" />
<glyph unicode="`" horiz-adv-x="1024" d="M250 1276h201l204 -348h-120z" />
<glyph unicode="a" horiz-adv-x="786" d="M55 246q0 123 75.5 200.5t197.5 77.5q55 0 98 -17.5t72 -51.5v71q0 57 -31 79t-113 22q-47 0 -94.5 -8.5t-95.5 -24.5l47 190q64 9 112.5 13t86.5 4q152 0 215 -55.5t63 -223.5v-520l-182 -20v77q-34 -42 -81 -64t-108 -22q-112 0 -187 78t-75 195zM248 254q0 -47 35 -79 t90 -32q54 0 89.5 32t35.5 79q0 46 -36 78.5t-89 32.5q-54 0 -89.5 -32.5t-35.5 -78.5z" />
<glyph unicode="b" horiz-adv-x="985" d="M92 483v987l201 19v-776q42 47 98.5 71.5t120.5 24.5q178 0 298 -120.5t120 -297.5q0 -178 -119.5 -296t-298.5 -118q-214 0 -317 124t-103 382zM289 389q0 -98 63.5 -165.5t155.5 -67.5t156.5 68t64.5 165t-64.5 165.5t-156.5 68.5t-155.5 -68t-63.5 -166z" />
<glyph unicode="c" horiz-adv-x="770" d="M57 395q0 176 119 297t297 121q60 0 127.5 -21.5t140.5 -64.5l-86 -162q-56 35 -97 48.5t-85 13.5q-93 0 -154 -65t-61 -165t60.5 -164.5t154.5 -64.5q44 0 93 21t106 63l73 -180q-65 -44 -136.5 -68t-135.5 -24q-177 0 -296.5 120t-119.5 295z" />
<glyph unicode="d" horiz-adv-x="999" d="M57 391q0 174 118.5 296t287.5 122q70 0 126.5 -23t104.5 -71v753l201 21v-1485l-201 -18v90q-46 -50 -107.5 -75.5t-135.5 -25.5q-166 0 -280 120.5t-114 295.5zM258 389q0 -98 64 -165.5t157 -67.5q92 0 155.5 67.5t63.5 165.5q0 97 -63.5 165.5t-155.5 68.5 t-156.5 -68.5t-64.5 -165.5z" />
<glyph unicode="e" horiz-adv-x="840" d="M63 403q0 174 116.5 292t285.5 118q108 0 202 -61.5t156 -173.5l-520 -336q29 -42 69 -62t93 -20q62 0 122 29t113 85l70 -165q-61 -63 -142.5 -97.5t-168.5 -34.5q-166 0 -281 123.5t-115 302.5zM242 432q0 -14 1.5 -28t4.5 -31l342 231q-29 23 -61 34t-68 11 q-92 0 -155.5 -63t-63.5 -154z" />
<glyph unicode="f" horiz-adv-x="508" d="M43 602l41 191h45v245q0 217 89 324.5t292 136.5v-209q-101 -17 -141.5 -72.5t-40.5 -183.5v-241h164v-191h-164v-602l-199 -18v620h-86z" />
<glyph unicode="g" horiz-adv-x="848" d="M63 475q0 142 101 237t254 95q33 0 123.5 -10.5t146.5 -10.5q28 0 56 1t59 4l-39 -136h-35h-24q33 -45 50 -93.5t17 -96.5q0 -75 -37 -137t-104 -99q58 -47 89.5 -113.5t31.5 -142.5q0 -142 -101 -238.5t-250 -96.5q-101 0 -183 43.5t-142 130.5l123 149 q30 -66 82 -101.5t116 -35.5q70 0 116 43.5t46 107.5q0 76 -50 124t-128 48q-53 0 -105.5 -20.5t-107.5 -63.5l41 146q-70 48 -108 117.5t-38 148.5zM260 469q0 -66 46 -113t112 -47q65 0 111 47.5t46 112.5t-46 112.5t-111 47.5q-67 0 -112.5 -46.5t-45.5 -113.5z" />
<glyph unicode="h" horiz-adv-x="854" d="M106 -18v1486l199 21v-778q45 49 101 74.5t120 25.5q117 0 174.5 -77t57.5 -234v-500l-199 -18v475q0 77 -30.5 118t-88.5 41q-66 0 -100.5 -45.5t-34.5 -134.5v-436z" />
<glyph unicode="i" horiz-adv-x="426" d="M115 -18v798l198 21v-801zM115 965v217h198v-217h-198z" />
<glyph unicode="j" horiz-adv-x="426" d="M45 -136q39 15 54.5 55.5t15.5 139.5v721l198 21v-731q0 -229 -58 -316t-210 -116v226zM115 965v217h198v-217h-198z" />
<glyph unicode="k" horiz-adv-x="844" d="M106 -18v1488l199 19v-1061l400 399l135 -114l-318 -303l326 -357l-174 -100l-369 412v-365z" />
<glyph unicode="l" horiz-adv-x="426" d="M115 -18v1486l198 21v-1489z" />
<glyph unicode="m" horiz-adv-x="1249" d="M106 -18v798l199 21v-90q43 46 96 72t101 26q68 0 116.5 -28t77.5 -85q46 56 103.5 84.5t126.5 28.5q116 0 172.5 -76.5t56.5 -232.5v-500l-199 -18v475q0 74 -27 113.5t-77 39.5q-60 0 -91.5 -44t-31.5 -130v-436l-199 -18v475q0 74 -26 113.5t-76 39.5q-60 0 -91.5 -44 t-31.5 -130v-436z" />
<glyph unicode="n" horiz-adv-x="854" d="M106 -18v798l199 21v-90q45 49 101 74.5t120 25.5q117 0 174.5 -77t57.5 -234v-500l-199 -18v475q0 77 -30.5 118t-88.5 41q-66 0 -100.5 -45.5t-34.5 -134.5v-436z" />
<glyph unicode="o" horiz-adv-x="948" d="M57 395q0 175 121.5 297.5t294.5 122.5q174 0 296 -123t122 -297q0 -173 -122 -295.5t-296 -122.5q-175 0 -295.5 121.5t-120.5 296.5zM258 397q0 -98 62 -165.5t153 -67.5t154 68.5t63 164.5q0 97 -63 165.5t-154 68.5q-90 0 -152.5 -67.5t-62.5 -166.5z" />
<glyph unicode="p" horiz-adv-x="999" d="M106 -375v1155l199 21v-90q46 49 107 73.5t137 24.5q166 0 279.5 -119.5t113.5 -294.5q0 -173 -118.5 -295.5t-286.5 -122.5q-72 0 -128.5 22.5t-103.5 70.5v-426zM301 397q0 -98 64.5 -165.5t156.5 -67.5q93 0 156 67.5t63 165.5q0 99 -63.5 166.5t-155.5 67.5 t-156.5 -68t-64.5 -166z" />
<glyph unicode="q" horiz-adv-x="999" d="M57 395q0 175 114 294.5t280 119.5q74 0 134.5 -24.5t108.5 -73.5v69l201 21v-1157l-201 -19v445q-47 -48 -103.5 -70.5t-127.5 -22.5q-169 0 -287.5 122.5t-118.5 295.5zM258 397q0 -97 64 -165t157 -68q92 0 155.5 67.5t63.5 165.5t-64 166t-155 68q-92 0 -156.5 -68 t-64.5 -166z" />
<glyph unicode="r" horiz-adv-x="522" d="M106 -18v798l199 21v-103q38 49 91 73t124 24v-195q-123 -2 -169 -46t-46 -165v-389z" />
<glyph unicode="s" horiz-adv-x="631" d="M57 96l113 137q24 -41 58.5 -64.5t72.5 -23.5t65 25.5t27 60.5t-21.5 56.5t-97.5 48.5q-114 40 -161 92.5t-47 136.5q0 103 76 176.5t182 73.5q76 0 141 -42t102 -116l-116 -106q-20 53 -54 80.5t-80 27.5q-30 0 -49.5 -18.5t-19.5 -46.5q0 -51 116 -94q23 -8 36 -13 q91 -34 133 -90t42 -141q0 -119 -79 -197.5t-201 -78.5q-74 0 -135 30t-103 86z" />
<glyph unicode="t" horiz-adv-x="530" d="M47 602v191h74v235l198 102v-337h158v-191h-158v-240q0 -111 33.5 -148.5t124.5 -37.5v-194h-16q-189 0 -264.5 73t-75.5 260v287h-74z" />
<glyph unicode="u" horiz-adv-x="854" d="M94 289v491l201 21v-447q0 -97 27.5 -139.5t89.5 -42.5q68 0 102.5 45t34.5 133v430l199 21v-795l-199 -18v90q-46 -51 -102 -77t-119 -26q-117 0 -175.5 78.5t-58.5 235.5z" />
<glyph unicode="v" horiz-adv-x="758" d="M-12 770l205 33l186 -453l190 453l193 -33l-336 -782h-96z" />
<glyph unicode="w" horiz-adv-x="1126" d="M12 770l197 33l153 -467l181 457h73l191 -451l135 461l184 -33l-266 -782h-78l-202 475l-199 -475h-84z" />
<glyph unicode="x" horiz-adv-x="758" d="M8 47l275 344l-252 326l184 90l176 -270l191 270l168 -88l-248 -326l266 -340l-190 -78l-187 269l-190 -269z" />
<glyph unicode="y" horiz-adv-x="844" d="M0 756l195 53l235 -520l232 516l188 -53l-524 -1123l-201 29l192 401z" />
<glyph unicode="z" horiz-adv-x="662" d="M6 0l340 606h-285l41 187h557l-340 -609h318v-184h-631z" />
<glyph unicode="{" horiz-adv-x="1024" d="M168 457v149q8 0 23 -1t22 -1q130 0 184 60.5t54 207.5v246q0 148 22.5 210.5t77.5 96.5q45 28 108.5 40t169.5 12h37v-150h-41q-120 0 -161 -44.5t-41 -184.5v-242q0 -160 -44.5 -228t-156.5 -98q113 -28 157 -96t44 -229v-242q0 -141 41.5 -185t162.5 -44h39v-148h-43 q-108 0 -169 11.5t-103 37.5q-55 34 -77.5 97t-22.5 211v245q0 149 -54.5 210t-185.5 61q-7 0 -21.5 -1t-21.5 -1z" />
<glyph unicode="|" horiz-adv-x="1024" d="M438 -483v2048h150v-2048h-150z" />
<glyph unicode="}" horiz-adv-x="1024" d="M160 -266h39q120 0 162 45t42 186v240q0 160 44.5 228t156.5 97q-112 30 -156.5 98t-44.5 228v242q0 140 -42 184.5t-162 44.5h-39v150h37q107 0 171 -12.5t107 -39.5q55 -34 77.5 -96.5t22.5 -210.5v-246q0 -147 54 -207.5t184 -60.5q7 0 22 1t23 1v-149q-7 0 -22 1 t-21 1q-132 0 -186 -60.5t-54 -210.5v-245q0 -148 -22.5 -211t-77.5 -97q-42 -26 -103 -37.5t-169 -11.5h-43v148z" />
<glyph unicode="~" horiz-adv-x="1706" d="M178 451v155q106 72 202 108t185 36q62 0 127.5 -13.5t163.5 -48.5q16 -5 47 -17q159 -57 240 -57q88 0 179.5 37t207.5 119v-156q-104 -72 -199 -106.5t-190 -34.5q-93 0 -256 58q-22 8 -34 12q-5 2 -15 5q-176 60 -273 60q-84 0 -175 -37t-210 -120z" />
<glyph unicode="&#xa0;" />
<glyph unicode="&#xa1;" horiz-adv-x="606" d="M199 -18v1171h209v-1153zM199 1249v215h209v-215h-209z" />
<glyph unicode="&#xa2;" d="M233 416q0 153 95 268.5t247 146.5v134h113v-135q52 -5 109.5 -25.5t122.5 -56.5l-84 -152q-43 25 -80 40t-68 19v-470q40 8 80.5 28t83.5 51l70 -172q-54 -38 -111.5 -60t-122.5 -28v-127h-113v129q-155 26 -248.5 137.5t-93.5 272.5zM420 420q0 -81 41 -141.5 t114 -88.5v461q-71 -23 -113 -86t-42 -145z" />
<glyph unicode="&#xa3;" d="M-2 256q0 116 77 192t195 76q59 0 119.5 -20.5t126.5 -63.5v226h-283v137h283v135q-84 12 -152.5 41t-117.5 74l61 143q52 -48 103 -75t106 -36v15q0 150 71 230.5t204 80.5q108 0 178.5 -65.5t70.5 -163.5q0 -114 -90 -183t-239 -69h-17v-127h297v-137h-297v-322 q100 -86 200 -134t179 -48q11 0 38 2q13 1 22 2l-33 -160h-10q-135 0 -243.5 39t-199.5 119q-42 -82 -131 -131t-194 -49q-147 0 -235.5 75t-88.5 197zM170 262q0 -50 40.5 -83.5t102.5 -33.5q60 0 106 28.5t73 80.5q-60 51 -114 76.5t-99 25.5q-51 0 -80 -25t-29 -69z M694 1067h6q74 0 118 30t44 79q0 31 -23 53t-55 22q-44 0 -67 -41.5t-23 -124.5v-18z" />
<glyph unicode="&#xa4;" horiz-adv-x="1241" d="M80 428l207 205q-41 51 -62.5 116t-21.5 136q0 70 21 133t63 119l-207 206l82 80l205 -204q57 43 120 64.5t134 21.5t134.5 -21.5t121.5 -64.5l204 204l82 -80l-205 -206q41 -55 61.5 -118t20.5 -134q0 -73 -20 -135.5t-62 -116.5l205 -205l-82 -82l-204 205 q-59 -44 -122 -65t-132 -21q-72 0 -135.5 21.5t-120.5 64.5l-205 -205zM319 887q0 -126 89 -215.5t215 -89.5q125 0 214 89.5t89 215.5q0 125 -89 214t-214 89q-126 0 -215 -89t-89 -214z" />
<glyph unicode="&#xa5;" d="M10 1204l156 121l424 -590l405 590l154 -108l-320 -439h246v-123h-336l-53 -75v-60h389v-123h-389v-397l-205 -18v415h-391v123h391v60l-57 75h-334v123h240z" />
<glyph unicode="&#xa6;" horiz-adv-x="1024" d="M438 -350v758h150v-758h-150zM438 674v758h150v-758h-150z" />
<glyph unicode="&#xa7;" horiz-adv-x="1024" d="M145 709q0 95 54.5 164t158.5 106q-87 35 -130.5 92.5t-43.5 138.5q0 131 99 212t260 81q134 0 223.5 -63.5t110.5 -171.5l-166 -62q-17 64 -66.5 102t-116.5 38q-61 0 -102 -34.5t-41 -84.5q0 -48 35 -78t151 -66q176 -54 250 -129t74 -194q0 -92 -49.5 -162.5 t-143.5 -110.5q80 -43 117 -98t37 -129q0 -132 -99 -213.5t-259 -81.5q-132 0 -223 65t-111 173l166 61q13 -61 64.5 -100t117.5 -39q61 0 102 34t41 83q0 47 -34.5 76.5t-151.5 66.5q-174 55 -249 130.5t-75 193.5zM336 739q0 -72 53.5 -121t132.5 -49q75 0 129 48.5 t54 111.5q0 71 -52.5 120.5t-128.5 49.5q-81 0 -134.5 -46t-53.5 -114z" />
<glyph unicode="&#xa8;" horiz-adv-x="1024" d="M256 985v209h182v-209h-182zM586 985v209h182v-209h-182z" />
<glyph unicode="&#xa9;" horiz-adv-x="1706" d="M117 727q0 147 56 281.5t163 242.5q104 104 236 158.5t280 54.5q152 0 285.5 -54.5t238.5 -160.5q104 -103 159.5 -238.5t55.5 -283.5q0 -149 -54.5 -281.5t-158.5 -234.5q-110 -107 -245.5 -164t-280.5 -57t-278.5 56t-239.5 163q-106 105 -161.5 238.5t-55.5 279.5z M213 727q0 -126 49 -242t141 -209q92 -91 207.5 -139.5t243.5 -48.5q125 0 242 49t213 142q90 88 137 202.5t47 245.5q0 130 -47.5 246.5t-136.5 206.5q-93 92 -209 140t-246 48q-129 0 -243.5 -47t-204.5 -137q-93 -93 -143 -211.5t-50 -245.5zM463 733q0 200 109 322.5 t286 122.5q142 0 236.5 -75t105.5 -196h-147q-13 77 -66 118.5t-139 41.5q-105 0 -165 -90.5t-60 -249.5q0 -157 62 -244.5t173 -87.5q82 0 136.5 47t68.5 129h145q-9 -130 -107.5 -211t-248.5 -81q-182 0 -285.5 120t-103.5 334z" />
<glyph unicode="&#xaa;" horiz-adv-x="590" d="M41 1092q0 86 56.5 140t148.5 54q43 0 75 -12.5t52 -36.5v51q0 40 -22.5 55t-84.5 15q-38 0 -73.5 -5.5t-69.5 -17.5l35 133q45 7 82 10t67 3q114 0 161.5 -39.5t47.5 -155.5v-364l-137 -15v54q-25 -30 -60.5 -45t-80.5 -15q-84 0 -140.5 55t-56.5 136zM186 1098 q0 -33 27 -55.5t68 -22.5q39 0 65.5 22.5t26.5 55.5q0 32 -26.5 55t-65.5 23q-40 0 -67.5 -23t-27.5 -55z" />
<glyph unicode="&#xab;" horiz-adv-x="895" d="M72 408l241 299l140 -82l-179 -217l179 -220l-140 -79zM432 408l242 299l139 -82l-178 -217l178 -220l-139 -79z" />
<glyph unicode="&#xac;" horiz-adv-x="1706" d="M254 721v139h1198v-502h-137v363h-1061z" />
<glyph unicode="&#xad;" horiz-adv-x="647" d="M109 328v188h428v-188h-428z" />
<glyph unicode="&#xae;" horiz-adv-x="1706" d="M117 727q0 146 57.5 282.5t165.5 245.5q101 103 231.5 156t280.5 53q151 0 286 -56t240 -163q103 -104 158 -238t55 -280q0 -151 -55 -283.5t-160 -234.5q-109 -106 -244.5 -162.5t-279.5 -56.5q-147 0 -280.5 56.5t-239.5 164.5q-105 106 -160 238.5t-55 277.5zM213 727 q0 -125 48.5 -240.5t139.5 -207.5q90 -92 206.5 -141.5t240.5 -49.5q130 0 246.5 48t212.5 140q90 88 138 202.5t48 242.5q0 134 -46.5 251t-135.5 206q-92 93 -208.5 141.5t-248.5 48.5q-130 0 -245 -47t-201 -135q-94 -95 -144.5 -214t-50.5 -245zM557 324v835h315 q174 0 261.5 -57.5t87.5 -171.5q0 -89 -50 -148t-141 -77l187 -381h-177l-170 356h-155v-356h-158zM715 780h133q113 0 162 31.5t49 101.5q0 76 -51 110t-164 34h-129v-277z" />
<glyph unicode="&#xaf;" horiz-adv-x="1024" d="M242 1020v139h540v-139h-540z" />
<glyph unicode="&#xb0;" horiz-adv-x="674" d="M49 1167q0 120 84.5 204.5t204.5 84.5q118 0 202.5 -84.5t84.5 -204.5q0 -119 -84 -202.5t-205 -83.5t-204 83t-83 203zM143 1169q0 -81 57 -138.5t138 -57.5t136.5 57.5t55.5 138.5t-55.5 137t-136.5 56t-138 -56t-57 -137z" />
<glyph unicode="&#xb1;" horiz-adv-x="1706" d="M254 29v141h1198v-141h-1198zM254 713v139h528v340h142v-340h528v-139h-528v-340h-142v340h-528z" />
<glyph unicode="&#xb2;" horiz-adv-x="758" d="M86 522q54 65 150 174q253 291 253 381q0 55 -34.5 89t-89.5 34t-92 -33.5t-37 -83.5q0 -45 33.5 -75t94.5 -40l-77 -89q-90 24 -139.5 78t-49.5 128q0 96 83 165t198 69q112 0 185 -65.5t73 -166.5q0 -73 -49 -155.5t-236 -284.5h295l-39 -125h-522z" />
<glyph unicode="&#xb3;" horiz-adv-x="758" d="M98 631l97 96q24 -45 64 -69.5t89 -24.5q57 0 92 31.5t35 83.5q0 55 -36 85.5t-103 30.5h-70v123h68q65 0 103 26t38 70q0 49 -32.5 78t-88.5 29q-47 0 -83 -21t-58 -61l-104 76q45 64 111.5 98.5t144.5 34.5q108 0 180.5 -63t72.5 -156q0 -61 -34 -106t-97 -66 q67 -24 102.5 -70.5t35.5 -112.5q0 -101 -79 -168t-198 -67q-73 0 -138 32t-112 91z" />
<glyph unicode="&#xb4;" horiz-adv-x="1024" d="M369 928l204 348h201l-285 -348h-120z" />
<glyph unicode="&#xb5;" horiz-adv-x="1151" d="M-113 -428l318 1499h180l-129 -600q-7 -32 -10.5 -64.5t-3.5 -68.5q0 -99 52 -153t148 -54q132 0 208.5 92.5t123.5 311.5l115 536h178l-156 -732q-1 -6 -4 -20q-18 -87 -18 -112q0 -37 16.5 -52.5t55.5 -15.5q12 0 18.5 0.5t13.5 1.5l-31 -143q-24 -5 -50 -7.5t-58 -2.5 q-63 0 -97 29t-52 100q-45 -66 -112.5 -98.5t-158.5 -32.5q-82 0 -143 27.5t-113 88.5l-110 -530h-181z" />
<glyph unicode="&#xb6;" horiz-adv-x="1024" d="M66 1130q0 157 107.5 253t285.5 96h499v-86h-120v-1393h-111v1393h-176v-1393h-113v782q-170 8 -271 102.5t-101 245.5z" />
<glyph unicode="&#xb7;" horiz-adv-x="573" d="M166 651q0 51 35 88t86 37q50 0 86.5 -37t36.5 -88q0 -50 -36 -85.5t-87 -35.5q-52 0 -86.5 35t-34.5 86z" />
<glyph unicode="&#xb8;" horiz-adv-x="1024" d="M244 -326q78 -18 145 -28.5t113 -10.5q54 0 82 21t28 61q0 43 -31.5 64.5t-93.5 21.5q-25 0 -38 -0.5t-23 -0.5v198h78v-102h31q106 0 163.5 -45.5t57.5 -128.5q0 -96 -63.5 -145.5t-186.5 -49.5q-50 0 -116 11.5t-144 33.5z" />
<glyph unicode="&#xb9;" horiz-adv-x="758" d="M158 1114q92 50 174 102.5t155 108.5v-803l-139 -10v586q-26 -19 -58 -39t-71 -41z" />
<glyph unicode="&#xba;" horiz-adv-x="711" d="M43 1196q0 123 91 209t220 86q131 0 222.5 -86t91.5 -209q0 -122 -91 -207.5t-223 -85.5q-131 0 -221 85t-90 208zM195 1198q0 -69 46 -116.5t113 -47.5q69 0 116.5 48t47.5 116q0 67 -48 115.5t-116 48.5q-66 0 -112.5 -47.5t-46.5 -116.5z" />
<glyph unicode="&#xbb;" horiz-adv-x="895" d="M84 188l176 220l-176 217l137 82l242 -299l-242 -299zM444 188l177 220l-177 217l138 82l241 -299l-241 -299z" />
<glyph unicode="&#xbc;" horiz-adv-x="1788" d="M152 1126q97 53 173.5 101t139.5 96v-750l-131 -10v549q-29 -20 -59 -38.5t-64 -37.5zM381 -25l870 1352h154l-877 -1352h-147zM1122 174l402 557h98v-452h90v-105h-90v-174h-127v174h-373zM1296 279h199l8 286z" />
<glyph unicode="&#xbd;" horiz-adv-x="1788" d="M152 1126q97 53 173.5 101t139.5 96v-750l-131 -10v549q-29 -20 -59 -38.5t-64 -37.5zM381 -25l870 1352h154l-877 -1352h-147zM1147 0q55 65 152 173q233 261 233 345q0 51 -33.5 83t-87.5 32q-50 0 -85.5 -32t-35.5 -79q0 -42 32 -69.5t89 -34.5l-72 -86 q-85 22 -132.5 72.5t-47.5 119.5q0 91 79 155t189 64q107 0 176.5 -60.5t69.5 -154.5q0 -122 -270 -409l-2 -2h282l-36 -117h-500z" />
<glyph unicode="&#xbe;" horiz-adv-x="1788" d="M92 674l94 90q23 -41 62.5 -64.5t85.5 -23.5q54 0 87.5 29.5t33.5 76.5q0 53 -35.5 82t-100.5 29h-65v115h65q63 0 99.5 24t36.5 66q0 45 -32 72.5t-85 27.5q-44 0 -79 -20t-54 -58l-103 72q44 59 107.5 91t136.5 32q105 0 175.5 -58.5t70.5 -144.5q0 -57 -33.5 -99.5 t-93.5 -62.5q63 -21 97 -65t34 -105q0 -94 -74.5 -156.5t-187.5 -62.5q-71 0 -132.5 29t-109.5 84zM381 -25l870 1352h154l-877 -1352h-147zM1122 174l402 557h98v-452h90v-105h-90v-174h-127v174h-373zM1296 279h199l8 286z" />
<glyph unicode="&#xbf;" horiz-adv-x="1053" d="M178 362q0 106 37 200t117 190q11 13 31 36q96 111 96 240v125h209v-176q0 -83 -25 -147t-86 -138q-11 -13 -34 -39q-136 -154 -136 -278q0 -94 52.5 -154.5t131.5 -60.5q91 0 147 71t56 189v10l184 -68q-15 -177 -125 -288t-270 -111q-168 0 -276.5 112t-108.5 287z M459 1249v215h209v-215h-209z" />
<glyph unicode="&#xc0;" horiz-adv-x="1489" d="M-8 10l788 1508l760 -1508l-209 -53l-297 602h-551l-305 -602zM508 1962h201l204 -348h-120zM578 743h378l-186 375z" />
<glyph unicode="&#xc1;" horiz-adv-x="1489" d="M-8 10l788 1508l760 -1508l-209 -53l-297 602h-551l-305 -602zM578 743h378l-186 375zM627 1614l204 348h201l-285 -348h-120z" />
<glyph unicode="&#xc2;" horiz-adv-x="1489" d="M-8 10l788 1508l760 -1508l-209 -53l-297 602h-551l-305 -602zM475 1614l197 348h196l197 -348h-123l-172 227l-174 -227h-121zM578 743h378l-186 375z" />
<glyph unicode="&#xc3;" horiz-adv-x="1489" d="M-8 10l788 1508l760 -1508l-209 -53l-297 602h-551l-305 -602zM477 1659q18 99 68 152t125 53q17 0 32 -2t27 -7l98 -28q14 -4 27 -6t27 -2q34 0 57 17.5t37 53.5h88q-20 -101 -70 -154t-127 -53q-17 0 -33.5 2t-31.5 7l-97 28q-13 4 -25.5 6t-23.5 2q-31 0 -53 -17 t-37 -52h-88zM578 743h378l-186 375z" />
<glyph unicode="&#xc4;" horiz-adv-x="1489" d="M-8 10l788 1508l760 -1508l-209 -53l-297 602h-551l-305 -602zM514 1671v209h182v-209h-182zM578 743h378l-186 375zM844 1671v209h182v-209h-182z" />
<glyph unicode="&#xc5;" horiz-adv-x="1489" d="M-8 10l788 1508l760 -1508l-209 -53l-297 602h-551l-305 -602zM512 1823q0 105 74 178.5t180 73.5t179 -73t73 -179q0 -107 -73 -180.5t-179 -73.5t-180 74t-74 180zM578 743h378l-186 375zM631 1823q0 -57 39 -96t96 -39q56 0 95.5 39t39.5 96q0 55 -40 95t-95 40 q-56 0 -95.5 -39.5t-39.5 -95.5z" />
<glyph unicode="&#xc6;" horiz-adv-x="1911" d="M-8 10l760 1454h759l70 -198h-647l215 -453h385l70 -205h-357l193 -399h497l-77 -209h-549l-287 608h-524l-322 -651zM612 813h316l-158 344z" />
<glyph unicode="&#xc7;" d="M86 741q0 321 211 531.5t539 210.5q31 0 60.5 -1.5t55.5 -4.5q18 -3 57 -11q21 -4 31 -6l35 -223q-54 20 -110.5 30.5t-112.5 10.5q-234 0 -388.5 -152.5t-154.5 -382.5q0 -243 164.5 -400t423.5 -157q41 0 85 6.5t95 20.5l-45 -221q-4 -1 -12 -2q-77 -10 -115 -10 q-372 0 -595.5 208t-223.5 553zM465 -326q78 -18 145 -28.5t113 -10.5q54 0 82 21t28 61q0 43 -31.5 64.5t-93.5 21.5q-25 0 -38 -0.5t-23 -0.5v198h78v-102h31q106 0 163.5 -45.5t57.5 -128.5q0 -96 -63.5 -145.5t-186.5 -49.5q-50 0 -116 11.5t-144 33.5z" />
<glyph unicode="&#xc8;" horiz-adv-x="977" d="M147 0v1464h717l54 -198h-551v-406h440v-205h-440v-446h614l-78 -209h-756zM260 1962h201l204 -348h-120z" />
<glyph unicode="&#xc9;" horiz-adv-x="977" d="M147 0v1464h717l54 -198h-551v-406h440v-205h-440v-446h614l-78 -209h-756zM379 1614l204 348h201l-285 -348h-120z" />
<glyph unicode="&#xca;" horiz-adv-x="977" d="M147 0v1464h717l54 -198h-551v-406h440v-205h-440v-446h614l-78 -209h-756zM227 1614l197 348h196l197 -348h-123l-172 227l-174 -227h-121z" />
<glyph unicode="&#xcb;" horiz-adv-x="977" d="M147 0v1464h717l54 -198h-551v-406h440v-205h-440v-446h614l-78 -209h-756zM266 1671v209h182v-209h-182zM596 1671v209h182v-209h-182z" />
<glyph unicode="&#xcc;" horiz-adv-x="545" d="M10 1962h201l204 -348h-120zM164 -18v1482l217 21v-1485z" />
<glyph unicode="&#xcd;" horiz-adv-x="545" d="M129 1614l204 348h201l-285 -348h-120zM164 -18v1482l217 21v-1485z" />
<glyph unicode="&#xce;" horiz-adv-x="545" d="M-23 1614l197 348h196l197 -348h-123l-172 227l-174 -227h-121zM164 -18v1482l217 21v-1485z" />
<glyph unicode="&#xcf;" horiz-adv-x="545" d="M16 1671v209h182v-209h-182zM164 -18v1482l217 21v-1485zM346 1671v209h182v-209h-182z" />
<glyph unicode="&#xd0;" horiz-adv-x="1403" d="M47 672v162h148v630h337q369 0 580 -197t211 -536q0 -185 -75.5 -344.5t-207.5 -253.5q-97 -69 -225 -101t-317 -32h-303v672h-148zM414 197h123q273 0 418 137.5t145 396.5q0 248 -144.5 393.5t-394.5 145.5h-147v-436h336v-162h-336v-475z" />
<glyph unicode="&#xd1;" horiz-adv-x="1475" d="M147 -18v1538l961 -1037v981l217 21v-1544l-958 1038v-979zM444 1659q18 99 68 152t125 53q17 0 32 -2t27 -7l98 -28q14 -4 27 -6t27 -2q34 0 57 17.5t37 53.5h88q-20 -101 -70 -154t-127 -53q-17 0 -33.5 2t-31.5 7l-97 28q-13 4 -25.5 6t-23.5 2q-31 0 -53 -17t-37 -52 h-88z" />
<glyph unicode="&#xd2;" horiz-adv-x="1692" d="M74 733q0 168 70 320.5t200 267.5q99 88 228 135t274 47q144 0 273.5 -47t230.5 -135q130 -116 199 -268t69 -320q0 -145 -52.5 -281.5t-150.5 -244.5q-109 -120 -254.5 -183t-314.5 -63q-145 0 -274 47t-228 135q-131 117 -200.5 269t-69.5 321zM297 733 q0 -239 157 -401t392 -162q233 0 391 163t158 400q0 238 -157.5 400.5t-391.5 162.5t-391.5 -162.5t-157.5 -400.5zM584 1962h201l204 -348h-120z" />
<glyph unicode="&#xd3;" horiz-adv-x="1692" d="M74 733q0 168 70 320.5t200 267.5q99 88 228 135t274 47q144 0 273.5 -47t230.5 -135q130 -116 199 -268t69 -320q0 -145 -52.5 -281.5t-150.5 -244.5q-109 -120 -254.5 -183t-314.5 -63q-145 0 -274 47t-228 135q-131 117 -200.5 269t-69.5 321zM297 733 q0 -239 157 -401t392 -162q233 0 391 163t158 400q0 238 -157.5 400.5t-391.5 162.5t-391.5 -162.5t-157.5 -400.5zM703 1614l204 348h201l-285 -348h-120z" />
<glyph unicode="&#xd4;" horiz-adv-x="1692" d="M74 733q0 168 70 320.5t200 267.5q99 88 228 135t274 47q144 0 273.5 -47t230.5 -135q130 -116 199 -268t69 -320q0 -145 -52.5 -281.5t-150.5 -244.5q-109 -120 -254.5 -183t-314.5 -63q-145 0 -274 47t-228 135q-131 117 -200.5 269t-69.5 321zM297 733 q0 -239 157 -401t392 -162q233 0 391 163t158 400q0 238 -157.5 400.5t-391.5 162.5t-391.5 -162.5t-157.5 -400.5zM551 1614l197 348h196l197 -348h-123l-172 227l-174 -227h-121z" />
<glyph unicode="&#xd5;" horiz-adv-x="1692" d="M74 733q0 168 70 320.5t200 267.5q99 88 228 135t274 47q144 0 273.5 -47t230.5 -135q130 -116 199 -268t69 -320q0 -145 -52.5 -281.5t-150.5 -244.5q-109 -120 -254.5 -183t-314.5 -63q-145 0 -274 47t-228 135q-131 117 -200.5 269t-69.5 321zM297 733 q0 -239 157 -401t392 -162q233 0 391 163t158 400q0 238 -157.5 400.5t-391.5 162.5t-391.5 -162.5t-157.5 -400.5zM553 1659q18 99 68 152t125 53q17 0 32 -2t27 -7l98 -28q14 -4 27 -6t27 -2q34 0 57 17.5t37 53.5h88q-20 -101 -70 -154t-127 -53q-17 0 -33.5 2t-31.5 7 l-97 28q-13 4 -25.5 6t-23.5 2q-31 0 -53 -17t-37 -52h-88z" />
<glyph unicode="&#xd6;" horiz-adv-x="1692" d="M74 733q0 168 70 320.5t200 267.5q99 88 228 135t274 47q144 0 273.5 -47t230.5 -135q130 -116 199 -268t69 -320q0 -145 -52.5 -281.5t-150.5 -244.5q-109 -120 -254.5 -183t-314.5 -63q-145 0 -274 47t-228 135q-131 117 -200.5 269t-69.5 321zM297 733 q0 -239 157 -401t392 -162q233 0 391 163t158 400q0 238 -157.5 400.5t-391.5 162.5t-391.5 -162.5t-157.5 -400.5zM590 1671v209h182v-209h-182zM920 1671v209h182v-209h-182z" />
<glyph unicode="&#xd7;" horiz-adv-x="1706" d="M293 141l469 469l-469 469l98 99l469 -469l469 469l98 -99l-469 -469l469 -469l-98 -96l-469 467l-469 -467z" />
<glyph unicode="&#xd8;" horiz-adv-x="1692" d="M61 113l164 153q-74 106 -112.5 225.5t-38.5 241.5q0 168 69.5 319.5t200.5 268.5q99 88 228 135t274 47q140 0 264 -43.5t229 -130.5l164 158l127 -131l-164 -158q76 -106 114 -222.5t38 -242.5q0 -145 -52.5 -281.5t-150.5 -244.5q-109 -120 -254.5 -183t-314.5 -63 q-138 0 -263 44t-231 130l-168 -162zM297 733q0 -84 22.5 -164t65.5 -147l799 760q-70 57 -154.5 85.5t-183.5 28.5q-234 0 -391.5 -162.5t-157.5 -400.5zM508 283q68 -56 153.5 -84.5t186.5 -28.5q231 0 389 163t158 400q0 86 -22.5 163.5t-67.5 147.5z" />
<glyph unicode="&#xd9;" horiz-adv-x="1335" d="M147 563v901l220 21v-832q0 -265 68 -372t229 -107q162 0 234.5 101.5t72.5 336.5v852l213 21v-922q0 -179 -26.5 -274.5t-88.5 -167.5t-169 -115t-224 -43q-266 0 -397.5 149t-131.5 451zM406 1962h201l204 -348h-120z" />
<glyph unicode="&#xda;" horiz-adv-x="1335" d="M147 563v901l220 21v-832q0 -265 68 -372t229 -107q162 0 234.5 101.5t72.5 336.5v852l213 21v-922q0 -179 -26.5 -274.5t-88.5 -167.5t-169 -115t-224 -43q-266 0 -397.5 149t-131.5 451zM525 1614l204 348h201l-285 -348h-120z" />
<glyph unicode="&#xdb;" horiz-adv-x="1335" d="M147 563v901l220 21v-832q0 -265 68 -372t229 -107q162 0 234.5 101.5t72.5 336.5v852l213 21v-922q0 -179 -26.5 -274.5t-88.5 -167.5t-169 -115t-224 -43q-266 0 -397.5 149t-131.5 451zM373 1614l197 348h196l197 -348h-123l-172 227l-174 -227h-121z" />
<glyph unicode="&#xdc;" horiz-adv-x="1335" d="M147 563v901l220 21v-832q0 -265 68 -372t229 -107q162 0 234.5 101.5t72.5 336.5v852l213 21v-922q0 -179 -26.5 -274.5t-88.5 -167.5t-169 -115t-224 -43q-266 0 -397.5 149t-131.5 451zM412 1671v209h182v-209h-182zM742 1671v209h182v-209h-182z" />
<glyph unicode="&#xdd;" horiz-adv-x="1157" d="M-8 1413l196 90l424 -710l303 710l197 -88l-637 -1460l-213 57l248 551zM437 1614l204 348h201l-285 -348h-120z" />
<glyph unicode="&#xde;" horiz-adv-x="1124" d="M147 -18v1482l220 21v-246h168q251 0 382.5 -114t131.5 -332q0 -206 -151 -324.5t-415 -118.5q-35 0 -110 4h-6v-354zM367 555q28 -5 60.5 -7.5t74.5 -2.5q160 0 242.5 62.5t82.5 185.5q0 129 -77 190t-240 61h-143v-489z" />
<glyph unicode="&#xdf;" horiz-adv-x="1063" d="M104 -18v1040q0 122 17.5 192.5t56.5 124.5q52 72 140.5 114t189.5 42q176 0 295 -114t119 -283q0 -120 -57.5 -206t-168.5 -130q144 -29 226 -125t82 -236q0 -175 -121.5 -297t-296.5 -122q-52 0 -98.5 9t-86.5 27v189q42 -18 81.5 -27.5t76.5 -9.5q99 0 161 66t62 170 q0 128 -81.5 194t-241.5 66q-8 0 -25.5 -1t-25.5 -1v176h24q139 0 216 63.5t77 177.5q0 97 -60.5 160.5t-152.5 63.5q-109 0 -159 -75.5t-50 -242.5v-987z" />
<glyph unicode="&#xe0;" horiz-adv-x="786" d="M55 246q0 123 75.5 200.5t197.5 77.5q55 0 98 -17.5t72 -51.5v71q0 57 -31 79t-113 22q-47 0 -94.5 -8.5t-95.5 -24.5l47 190q64 9 112.5 13t86.5 4q152 0 215 -55.5t63 -223.5v-520l-182 -20v77q-34 -42 -81 -64t-108 -22q-112 0 -187 78t-75 195zM144 1276h201 l204 -348h-120zM248 254q0 -47 35 -79t90 -32q54 0 89.5 32t35.5 79q0 46 -36 78.5t-89 32.5q-54 0 -89.5 -32.5t-35.5 -78.5z" />
<glyph unicode="&#xe1;" horiz-adv-x="786" d="M55 246q0 123 75.5 200.5t197.5 77.5q55 0 98 -17.5t72 -51.5v71q0 57 -31 79t-113 22q-47 0 -94.5 -8.5t-95.5 -24.5l47 190q64 9 112.5 13t86.5 4q152 0 215 -55.5t63 -223.5v-520l-182 -20v77q-34 -42 -81 -64t-108 -22q-112 0 -187 78t-75 195zM248 254q0 -47 35 -79 t90 -32q54 0 89.5 32t35.5 79q0 46 -36 78.5t-89 32.5q-54 0 -89.5 -32.5t-35.5 -78.5zM263 928l204 348h201l-285 -348h-120z" />
<glyph unicode="&#xe2;" horiz-adv-x="786" d="M55 246q0 123 75.5 200.5t197.5 77.5q55 0 98 -17.5t72 -51.5v71q0 57 -31 79t-113 22q-47 0 -94.5 -8.5t-95.5 -24.5l47 190q64 9 112.5 13t86.5 4q152 0 215 -55.5t63 -223.5v-520l-182 -20v77q-34 -42 -81 -64t-108 -22q-112 0 -187 78t-75 195zM111 928l197 348h196 l197 -348h-123l-172 227l-174 -227h-121zM248 254q0 -47 35 -79t90 -32q54 0 89.5 32t35.5 79q0 46 -36 78.5t-89 32.5q-54 0 -89.5 -32.5t-35.5 -78.5z" />
<glyph unicode="&#xe3;" horiz-adv-x="786" d="M55 246q0 123 75.5 200.5t197.5 77.5q55 0 98 -17.5t72 -51.5v71q0 57 -31 79t-113 22q-47 0 -94.5 -8.5t-95.5 -24.5l47 190q64 9 112.5 13t86.5 4q152 0 215 -55.5t63 -223.5v-520l-182 -20v77q-34 -42 -81 -64t-108 -22q-112 0 -187 78t-75 195zM113 973q18 99 68 152 t125 53q17 0 32 -2t27 -7l98 -28q14 -4 27 -6t27 -2q34 0 57 17.5t37 53.5h88q-20 -101 -70 -154t-127 -53q-17 0 -33.5 2t-31.5 7l-97 28q-13 4 -25.5 6t-23.5 2q-31 0 -53 -17t-37 -52h-88zM248 254q0 -47 35 -79t90 -32q54 0 89.5 32t35.5 79q0 46 -36 78.5t-89 32.5 q-54 0 -89.5 -32.5t-35.5 -78.5z" />
<glyph unicode="&#xe4;" horiz-adv-x="786" d="M55 246q0 123 75.5 200.5t197.5 77.5q55 0 98 -17.5t72 -51.5v71q0 57 -31 79t-113 22q-47 0 -94.5 -8.5t-95.5 -24.5l47 190q64 9 112.5 13t86.5 4q152 0 215 -55.5t63 -223.5v-520l-182 -20v77q-34 -42 -81 -64t-108 -22q-112 0 -187 78t-75 195zM150 985v209h182v-209 h-182zM248 254q0 -47 35 -79t90 -32q54 0 89.5 32t35.5 79q0 46 -36 78.5t-89 32.5q-54 0 -89.5 -32.5t-35.5 -78.5zM480 985v209h182v-209h-182z" />
<glyph unicode="&#xe5;" horiz-adv-x="786" d="M55 246q0 123 75.5 200.5t197.5 77.5q55 0 98 -17.5t72 -51.5v71q0 57 -31 79t-113 22q-47 0 -94.5 -8.5t-95.5 -24.5l47 190q64 9 112.5 13t86.5 4q152 0 215 -55.5t63 -223.5v-520l-182 -20v77q-34 -42 -81 -64t-108 -22q-112 0 -187 78t-75 195zM147 1120 q0 106 74 179t180 73t179 -73t73 -179t-73 -180t-179 -74t-180 74t-74 180zM248 254q0 -46 35.5 -78.5t89.5 -32.5q53 0 89 32.5t36 78.5q0 47 -35.5 79t-89.5 32t-89.5 -32t-35.5 -79zM266 1120q0 -57 39.5 -96t95.5 -39t96 39.5t40 95.5t-40 95.5t-96 39.5q-55 0 -95 -39 t-40 -96z" />
<glyph unicode="&#xe6;" horiz-adv-x="1282" d="M55 246q0 121 77.5 200.5t195.5 79.5q50 0 96 -20.5t84 -59.5v15q0 83 -38.5 123.5t-117.5 40.5q-19 0 -46 -3t-77 -12l45 186q33 4 66.5 5.5t67.5 1.5q85 0 146 -26.5t93 -76.5q48 55 109 81t139 26q168 0 264.5 -116t97.5 -320l-571 -1q10 -93 72.5 -151.5t152.5 -58.5 q43 0 84.5 14.5t87.5 46.5l129 -112q-61 -63 -143 -97.5t-170 -34.5q-97 0 -174.5 42.5t-122.5 119.5q-41 -81 -109 -122.5t-159 -41.5q-123 0 -201 76t-78 195zM242 254q0 -49 38 -84t93 -35q56 0 93.5 34.5t37.5 84.5t-37.5 84.5t-93.5 34.5q-55 0 -93 -34.5t-38 -84.5z M696 508h375q-9 65 -58 106t-120 41q-79 0 -130 -38t-67 -109z" />
<glyph unicode="&#xe7;" horiz-adv-x="770" d="M57 395q0 176 119 297t297 121q60 0 127.5 -21.5t140.5 -64.5l-86 -162q-56 35 -97 48.5t-85 13.5q-93 0 -154 -65t-61 -165t60.5 -164.5t154.5 -64.5q44 0 93 21t106 63l73 -180q-65 -44 -136.5 -68t-135.5 -24q-177 0 -296.5 120t-119.5 295zM178 -326 q78 -18 145 -28.5t113 -10.5q54 0 82 21t28 61q0 43 -31.5 64.5t-93.5 21.5q-25 0 -38 -0.5t-23 -0.5v198h78v-102h31q106 0 163.5 -45.5t57.5 -128.5q0 -96 -63.5 -145.5t-186.5 -49.5q-50 0 -116 11.5t-144 33.5z" />
<glyph unicode="&#xe8;" horiz-adv-x="840" d="M63 403q0 174 116.5 292t285.5 118q108 0 202 -61.5t156 -173.5l-520 -336q29 -42 69 -62t93 -20q62 0 122 29t113 85l70 -165q-61 -63 -142.5 -97.5t-168.5 -34.5q-166 0 -281 123.5t-115 302.5zM182 1276h201l204 -348h-120zM242 432q0 -14 1.5 -28t4.5 -31l342 231 q-29 23 -61 34t-68 11q-92 0 -155.5 -63t-63.5 -154z" />
<glyph unicode="&#xe9;" horiz-adv-x="840" d="M63 403q0 174 116.5 292t285.5 118q108 0 202 -61.5t156 -173.5l-520 -336q29 -42 69 -62t93 -20q62 0 122 29t113 85l70 -165q-61 -63 -142.5 -97.5t-168.5 -34.5q-166 0 -281 123.5t-115 302.5zM242 432q0 -14 1.5 -28t4.5 -31l342 231q-29 23 -61 34t-68 11 q-92 0 -155.5 -63t-63.5 -154zM301 928l204 348h201l-285 -348h-120z" />
<glyph unicode="&#xea;" horiz-adv-x="840" d="M63 403q0 174 116.5 292t285.5 118q108 0 202 -61.5t156 -173.5l-520 -336q29 -42 69 -62t93 -20q62 0 122 29t113 85l70 -165q-61 -63 -142.5 -97.5t-168.5 -34.5q-166 0 -281 123.5t-115 302.5zM149 928l197 348h196l197 -348h-123l-172 227l-174 -227h-121zM242 432 q0 -14 1.5 -28t4.5 -31l342 231q-29 23 -61 34t-68 11q-92 0 -155.5 -63t-63.5 -154z" />
<glyph unicode="&#xeb;" horiz-adv-x="840" d="M63 403q0 174 116.5 292t285.5 118q108 0 202 -61.5t156 -173.5l-520 -336q29 -42 69 -62t93 -20q62 0 122 29t113 85l70 -165q-61 -63 -142.5 -97.5t-168.5 -34.5q-166 0 -281 123.5t-115 302.5zM188 985v209h182v-209h-182zM242 432q0 -14 1.5 -28t4.5 -31l342 231 q-29 23 -61 34t-68 11q-92 0 -155.5 -63t-63.5 -154zM518 985v209h182v-209h-182z" />
<glyph unicode="&#xec;" horiz-adv-x="426" d="M-49 1276h201l204 -348h-120zM115 -18v798l198 21v-801z" />
<glyph unicode="&#xed;" horiz-adv-x="426" d="M70 928l204 348h201l-285 -348h-120zM115 -18v798l198 21v-801z" />
<glyph unicode="&#xee;" horiz-adv-x="426" d="M-82 928l197 348h196l197 -348h-123l-172 227l-174 -227h-121zM115 -18v798l198 21v-801z" />
<glyph unicode="&#xef;" horiz-adv-x="426" d="M-43 985v209h182v-209h-182zM115 -18v798l198 21v-801zM287 985v209h182v-209h-182z" />
<glyph unicode="&#xf0;" horiz-adv-x="948" d="M57 395q0 178 118.5 295t301.5 117q9 0 22 -1t37 -3l-118 237l-187 -94l-59 117l186 94l-127 250l140 82l133 -254l176 90l59 -117l-176 -92l252 -483q38 -71 55 -127.5t17 -110.5q0 -178 -119.5 -298t-294.5 -120t-295.5 121.5t-120.5 296.5zM258 397q0 -98 62 -165.5 t153 -67.5q90 0 153.5 69t63.5 164q0 105 -59.5 169.5t-157.5 64.5q-90 0 -152.5 -67.5t-62.5 -166.5z" />
<glyph unicode="&#xf1;" horiz-adv-x="854" d="M106 -18v798l199 21v-90q45 49 101 74.5t120 25.5q117 0 174.5 -77t57.5 -234v-500l-199 -18v475q0 77 -30.5 118t-88.5 41q-66 0 -100.5 -45.5t-34.5 -134.5v-436zM135 973q18 99 68 152t125 53q17 0 32 -2t27 -7l98 -28q14 -4 27 -6t27 -2q34 0 57 17.5t37 53.5h88 q-20 -101 -70 -154t-127 -53q-17 0 -33.5 2t-31.5 7l-97 28q-13 4 -25.5 6t-23.5 2q-31 0 -53 -17t-37 -52h-88z" />
<glyph unicode="&#xf2;" horiz-adv-x="948" d="M57 395q0 175 121.5 297.5t294.5 122.5q174 0 296 -123t122 -297q0 -173 -122 -295.5t-296 -122.5q-175 0 -295.5 121.5t-120.5 296.5zM213 1276h201l204 -348h-120zM258 397q0 -98 62 -165.5t153 -67.5t154 68.5t63 164.5q0 97 -63 165.5t-154 68.5q-90 0 -152.5 -67.5 t-62.5 -166.5z" />
<glyph unicode="&#xf3;" horiz-adv-x="948" d="M57 395q0 175 121.5 297.5t294.5 122.5q174 0 296 -123t122 -297q0 -173 -122 -295.5t-296 -122.5q-175 0 -295.5 121.5t-120.5 296.5zM258 397q0 -98 62 -165.5t153 -67.5t154 68.5t63 164.5q0 97 -63 165.5t-154 68.5q-90 0 -152.5 -67.5t-62.5 -166.5zM332 928 l204 348h201l-285 -348h-120z" />
<glyph unicode="&#xf4;" horiz-adv-x="948" d="M57 395q0 175 121.5 297.5t294.5 122.5q174 0 296 -123t122 -297q0 -173 -122 -295.5t-296 -122.5q-175 0 -295.5 121.5t-120.5 296.5zM180 928l197 348h196l197 -348h-123l-172 227l-174 -227h-121zM258 397q0 -98 62 -165.5t153 -67.5t154 68.5t63 164.5 q0 97 -63 165.5t-154 68.5q-90 0 -152.5 -67.5t-62.5 -166.5z" />
<glyph unicode="&#xf5;" horiz-adv-x="948" d="M57 395q0 175 121.5 297.5t294.5 122.5q174 0 296 -123t122 -297q0 -173 -122 -295.5t-296 -122.5q-175 0 -295.5 121.5t-120.5 296.5zM182 973q18 99 68 152t125 53q17 0 32 -2t27 -7l98 -28q14 -4 27 -6t27 -2q34 0 57 17.5t37 53.5h88q-20 -101 -70 -154t-127 -53 q-17 0 -33.5 2t-31.5 7l-97 28q-13 4 -25.5 6t-23.5 2q-31 0 -53 -17t-37 -52h-88zM258 397q0 -98 62 -165.5t153 -67.5t154 68.5t63 164.5q0 97 -63 165.5t-154 68.5q-90 0 -152.5 -67.5t-62.5 -166.5z" />
<glyph unicode="&#xf6;" horiz-adv-x="948" d="M57 395q0 175 121.5 297.5t294.5 122.5q174 0 296 -123t122 -297q0 -173 -122 -295.5t-296 -122.5q-175 0 -295.5 121.5t-120.5 296.5zM219 985v209h182v-209h-182zM258 397q0 -98 62 -165.5t153 -67.5t154 68.5t63 164.5q0 97 -63 165.5t-154 68.5q-90 0 -152.5 -67.5 t-62.5 -166.5zM549 985v209h182v-209h-182z" />
<glyph unicode="&#xf7;" horiz-adv-x="1706" d="M254 541v139h1198v-139h-1198zM729 242q0 51 37 88t88 37t88 -37t37 -88q0 -52 -36.5 -88.5t-88.5 -36.5q-53 0 -89 36t-36 89zM729 979q0 52 37 89.5t88 37.5t88 -37.5t37 -89.5q0 -51 -36.5 -88t-88.5 -37t-88.5 36.5t-36.5 88.5z" />
<glyph unicode="&#xf8;" horiz-adv-x="948" d="M43 68l88 86q-36 53 -55 115.5t-19 125.5q0 175 121 297.5t295 122.5q69 0 132 -21.5t122 -64.5l100 96l86 -88l-102 -98q38 -52 59 -115.5t21 -128.5q0 -173 -122 -295.5t-296 -122.5q-70 0 -136 22.5t-120 63.5l-88 -86zM248 397q0 -25 5.5 -52.5t16.5 -57.5l326 315 q-28 20 -58 29.5t-65 9.5q-94 0 -159.5 -70.5t-65.5 -173.5zM350 190q29 -19 58.5 -27.5t64.5 -8.5q95 0 161 71.5t66 171.5q0 34 -5.5 60.5t-18.5 52.5z" />
<glyph unicode="&#xf9;" horiz-adv-x="854" d="M94 289v491l201 21v-447q0 -97 27.5 -139.5t89.5 -42.5q68 0 102.5 45t34.5 133v430l199 21v-795l-199 -18v90q-46 -51 -102 -77t-119 -26q-117 0 -175.5 78.5t-58.5 235.5zM166 1276h201l204 -348h-120z" />
<glyph unicode="&#xfa;" horiz-adv-x="854" d="M94 289v491l201 21v-447q0 -97 27.5 -139.5t89.5 -42.5q68 0 102.5 45t34.5 133v430l199 21v-795l-199 -18v90q-46 -51 -102 -77t-119 -26q-117 0 -175.5 78.5t-58.5 235.5zM285 928l204 348h201l-285 -348h-120z" />
<glyph unicode="&#xfb;" horiz-adv-x="854" d="M94 289v491l201 21v-447q0 -97 27.5 -139.5t89.5 -42.5q68 0 102.5 45t34.5 133v430l199 21v-795l-199 -18v90q-46 -51 -102 -77t-119 -26q-117 0 -175.5 78.5t-58.5 235.5zM133 928l197 348h196l197 -348h-123l-172 227l-174 -227h-121z" />
<glyph unicode="&#xfc;" horiz-adv-x="854" d="M94 289v491l201 21v-447q0 -97 27.5 -139.5t89.5 -42.5q68 0 102.5 45t34.5 133v430l199 21v-795l-199 -18v90q-46 -51 -102 -77t-119 -26q-117 0 -175.5 78.5t-58.5 235.5zM172 985v209h182v-209h-182zM502 985v209h182v-209h-182z" />
<glyph unicode="&#xfd;" horiz-adv-x="844" d="M0 756l195 53l235 -520l232 516l188 -53l-524 -1123l-201 29l192 401zM279 928l204 348h201l-285 -348h-120z" />
<glyph unicode="&#xfe;" horiz-adv-x="999" d="M106 -375v1843l199 21v-778q46 49 107 73.5t137 24.5q166 0 279.5 -119.5t113.5 -294.5q0 -173 -118.5 -295.5t-286.5 -122.5q-72 0 -128.5 22.5t-103.5 70.5v-426zM301 397q0 -98 64.5 -165.5t156.5 -67.5q93 0 156 67.5t63 165.5q0 99 -63.5 166.5t-155.5 67.5 t-156.5 -68t-64.5 -166z" />
<glyph unicode="&#xff;" horiz-adv-x="844" d="M0 756l195 53l235 -520l232 516l188 -53l-524 -1123l-201 29l192 401zM166 985v209h182v-209h-182zM496 985v209h182v-209h-182z" />
<glyph unicode="&#x152;" horiz-adv-x="2148" d="M74 733q0 168 69.5 319.5t200.5 268.5q99 88 228 135t274 47q66 0 128.5 -9.5t125.5 -29.5h975l53 -198h-725q83 -83 135 -187.5t68 -218.5h352v-205h-344q-11 -124 -61 -235.5t-140 -210.5h719l-78 -209h-962q-68 -19 -129.5 -29t-116.5 -10q-145 0 -273.5 46.5 t-228.5 135.5q-130 116 -200 268.5t-70 321.5zM297 733q0 -239 157 -401t392 -162q233 0 391 163t158 400q0 238 -157.5 400.5t-391.5 162.5t-391.5 -162.5t-157.5 -400.5z" />
<glyph unicode="&#x153;" horiz-adv-x="1446" d="M57 395q0 175 121 297.5t295 122.5q91 0 170 -35.5t139 -103.5q56 66 124.5 98.5t152.5 32.5q168 0 264.5 -116t97.5 -320l-571 -1q9 -92 72 -151t153 -59q43 0 84.5 14.5t87.5 46.5l129 -112q-61 -63 -143 -97.5t-170 -34.5t-159.5 34.5t-125.5 101.5 q-59 -68 -135.5 -102t-169.5 -34q-175 0 -295.5 121.5t-120.5 296.5zM258 397q0 -98 62 -165.5t153 -67.5t154 68.5t63 164.5t-63.5 165t-153.5 69t-152.5 -67.5t-62.5 -166.5zM858 508h377q-9 65 -58.5 106t-119.5 41q-80 0 -132 -38t-67 -109z" />
<glyph unicode="&#x178;" horiz-adv-x="1157" d="M-8 1413l196 90l424 -710l303 710l197 -88l-637 -1460l-213 57l248 551zM324 1671v209h182v-209h-182zM654 1671v209h182v-209h-182z" />
<glyph unicode="&#x2c6;" horiz-adv-x="1024" d="M217 928l197 348h196l197 -348h-123l-172 227l-174 -227h-121z" />
<glyph unicode="&#x2dc;" horiz-adv-x="1024" d="M219 973q18 99 68 152t125 53q17 0 32 -2t27 -7l98 -28q14 -4 27 -6t27 -2q34 0 57 17.5t37 53.5h88q-20 -101 -70 -154t-127 -53q-17 0 -33.5 2t-31.5 7l-97 28q-13 4 -25.5 6t-23.5 2q-31 0 -53 -17t-37 -52h-88z" />
<glyph unicode="&#x2000;" horiz-adv-x="1037" />
<glyph unicode="&#x2001;" horiz-adv-x="2075" />
<glyph unicode="&#x2002;" horiz-adv-x="1037" />
<glyph unicode="&#x2003;" horiz-adv-x="2075" />
<glyph unicode="&#x2004;" horiz-adv-x="691" />
<glyph unicode="&#x2005;" horiz-adv-x="518" />
<glyph unicode="&#x2006;" horiz-adv-x="345" />
<glyph unicode="&#x2007;" horiz-adv-x="345" />
<glyph unicode="&#x2008;" horiz-adv-x="259" />
<glyph unicode="&#x2009;" horiz-adv-x="415" />
<glyph unicode="&#x200a;" horiz-adv-x="115" />
<glyph unicode="&#x2010;" horiz-adv-x="647" d="M109 328v188h428v-188h-428z" />
<glyph unicode="&#x2011;" horiz-adv-x="647" d="M109 328v188h428v-188h-428z" />
<glyph unicode="&#x2012;" horiz-adv-x="647" d="M109 328v188h428v-188h-428z" />
<glyph unicode="&#x2013;" horiz-adv-x="1024" d="M0 346v152h1024v-152h-1024z" />
<glyph unicode="&#x2014;" horiz-adv-x="2048" d="M0 346v152h2048v-152h-2048z" />
<glyph unicode="&#x2018;" horiz-adv-x="455" d="M96 1251q0 63 29.5 125t89.5 127l141 -76q-54 -66 -71 -102.5t-17 -73.5t17 -73t71 -103l-141 -74q-59 63 -89 125.5t-30 124.5z" />
<glyph unicode="&#x2019;" horiz-adv-x="455" d="M96 1075q55 67 71.5 103t16.5 73t-16.5 73.5t-71.5 102.5l142 76q59 -64 88.5 -127t29.5 -125t-29.5 -124.5t-88.5 -125.5z" />
<glyph unicode="&#x201a;" horiz-adv-x="455" d="M96 -152q55 67 71.5 103t16.5 74t-17.5 75.5t-70.5 102.5l142 73q59 -64 88.5 -126.5t29.5 -124.5q0 -63 -29.5 -125.5t-88.5 -124.5z" />
<glyph unicode="&#x201c;" horiz-adv-x="815" d="M96 1251q0 63 29.5 125t89.5 127l141 -76q-54 -66 -71 -102.5t-17 -73.5t17 -73t71 -103l-141 -74q-59 63 -89 125.5t-30 124.5zM457 1251q0 62 29 124t89 128l142 -76q-55 -66 -71.5 -102.5t-16.5 -73.5t16.5 -73t71.5 -103l-142 -74q-59 63 -88.5 125.5t-29.5 124.5z " />
<glyph unicode="&#x201d;" horiz-adv-x="815" d="M96 1075q55 67 71.5 103t16.5 73t-16.5 73.5t-71.5 102.5l142 76q59 -64 88.5 -127t29.5 -125t-29.5 -124.5t-88.5 -125.5zM457 1075q54 67 71 103t17 73t-17 73.5t-71 102.5l141 76q59 -64 89 -127t30 -125t-30 -124.5t-89 -125.5z" />
<glyph unicode="&#x201e;" horiz-adv-x="815" d="M96 -152q55 67 71.5 103t16.5 74t-17.5 75.5t-70.5 102.5l142 73q59 -64 88.5 -126.5t29.5 -124.5q0 -63 -29.5 -125.5t-88.5 -124.5zM457 -152q54 67 71 103t17 74t-18 75.5t-70 102.5l141 73q59 -64 89 -126.5t30 -124.5q0 -63 -30 -125.5t-89 -124.5z" />
<glyph unicode="&#x2022;" horiz-adv-x="1208" d="M307 762q0 123 87 209t210 86q122 0 208.5 -86.5t86.5 -208.5t-87.5 -209.5t-209.5 -87.5q-123 0 -209 87t-86 210z" />
<glyph unicode="&#x2026;" horiz-adv-x="2048" d="M241 0v215h201v-215h-201zM923 0v215h201v-215h-201zM1607 0v215h201v-215h-201z" />
<glyph unicode="&#x202f;" horiz-adv-x="415" />
<glyph unicode="&#x2039;" horiz-adv-x="537" d="M72 408l241 299l140 -82l-179 -217l179 -220l-140 -79z" />
<glyph unicode="&#x203a;" horiz-adv-x="537" d="M84 188l176 220l-176 217l137 82l242 -299l-242 -299z" />
<glyph unicode="&#x205f;" horiz-adv-x="518" />
<glyph unicode="&#x2122;" horiz-adv-x="1706" d="M242 1378v80h452v-80h-172v-458h-108v458h-172zM813 920v538h150l151 -385l141 385h150v-538h-98v444l-166 -444h-56l-174 444v-444h-98z" />
<glyph unicode="&#x25fc;" horiz-adv-x="805" d="M0 0v805h805v-805h-805z" />
</font>
</defs>
</svg>
